<mxfile host="app.diagrams.net" agent="Mozilla/5.0 (Windows NT 10.0; Win64; x64; rv:132.0) Gecko/20100101 Firefox/132.0" version="24.8.6">
  <diagram name="Seite-1" id="XW_0ANEHmPP_M-6RpB5G">
    <mxGraphModel dx="2134" dy="1654" grid="1" gridSize="10" guides="1" tooltips="1" connect="1" arrows="1" fold="1" page="1" pageScale="1" pageWidth="827" pageHeight="1169" math="0" shadow="0">
      <root>
        <mxCell id="0" />
        <mxCell id="1" parent="0" />
        <mxCell id="kurR8D_o498Ej0qyucVB-48" value="" style="rounded=0;whiteSpace=wrap;html=1;fillColor=#A9C4EB;strokeColor=#666666;fontColor=#333333;opacity=10;glass=1;" parent="1" vertex="1">
          <mxGeometry x="-413" y="295" width="1190" height="680" as="geometry" />
        </mxCell>
        <mxCell id="P1MDgO6zlZVomxwXiuD8-25" value="Elemente eines Petrinetzes" style="shape=table;startSize=30;container=1;collapsible=0;childLayout=tableLayout;labelBackgroundColor=none;labelBorderColor=none;textShadow=0;fontSize=21;fontStyle=1;strokeWidth=1;fillColor=#e6e6e6;rounded=1;swimlaneLine=1;shadow=0;opacity=60;swimlaneFillColor=default;" parent="1" vertex="1">
          <mxGeometry x="40" y="320" width="710" height="630" as="geometry" />
        </mxCell>
        <mxCell id="P1MDgO6zlZVomxwXiuD8-26" value="" style="shape=tableRow;horizontal=0;startSize=0;swimlaneHead=0;swimlaneBody=0;strokeColor=inherit;top=0;left=0;bottom=0;right=0;collapsible=0;dropTarget=0;fillColor=none;points=[[0,0.5],[1,0.5]];portConstraint=eastwest;fontSize=13;labelBackgroundColor=none;swimlaneLine=1;" parent="P1MDgO6zlZVomxwXiuD8-25" vertex="1">
          <mxGeometry y="30" width="710" height="31" as="geometry" />
        </mxCell>
        <mxCell id="P1MDgO6zlZVomxwXiuD8-27" value="&lt;b&gt;&lt;font style=&quot;font-size: 21px;&quot; color=&quot;#000000&quot;&gt;Element&lt;/font&gt;&lt;/b&gt;" style="shape=partialRectangle;html=1;whiteSpace=wrap;connectable=0;overflow=hidden;top=0;left=0;bottom=0;right=0;pointerEvents=1;fontSize=13;fillColor=none;fontColor=#333333;strokeColor=#000000;labelBackgroundColor=none;swimlaneLine=1;" parent="P1MDgO6zlZVomxwXiuD8-26" vertex="1">
          <mxGeometry width="430" height="31" as="geometry">
            <mxRectangle width="430" height="31" as="alternateBounds" />
          </mxGeometry>
        </mxCell>
        <mxCell id="P1MDgO6zlZVomxwXiuD8-28" value="&lt;b&gt;&lt;font style=&quot;font-size: 21px;&quot;&gt;Symbol&lt;/font&gt;&lt;/b&gt;" style="shape=partialRectangle;html=1;whiteSpace=wrap;connectable=0;overflow=hidden;top=0;left=0;bottom=0;right=0;pointerEvents=1;fontSize=13;fillColor=none;labelBackgroundColor=none;swimlaneLine=1;" parent="P1MDgO6zlZVomxwXiuD8-26" vertex="1">
          <mxGeometry x="430" width="280" height="31" as="geometry">
            <mxRectangle width="280" height="31" as="alternateBounds" />
          </mxGeometry>
        </mxCell>
        <mxCell id="P1MDgO6zlZVomxwXiuD8-30" value="" style="shape=tableRow;horizontal=0;startSize=0;swimlaneHead=0;swimlaneBody=0;strokeColor=default;top=0;left=0;bottom=0;right=0;collapsible=0;dropTarget=0;fillColor=none;points=[[0,0.5],[1,0.5]];portConstraint=eastwest;fontSize=13;labelBackgroundColor=none;swimlaneLine=1;" parent="P1MDgO6zlZVomxwXiuD8-25" vertex="1">
          <mxGeometry y="61" width="710" height="81" as="geometry" />
        </mxCell>
        <mxCell id="P1MDgO6zlZVomxwXiuD8-31" value="&lt;font style=&quot;font-size: 21px;&quot;&gt;&lt;b&gt;Stelle&lt;/b&gt;&amp;nbsp;&lt;/font&gt;&lt;div&gt;&lt;font style=&quot;font-size: 21px;&quot;&gt;(lokaler Zustand)&lt;/font&gt;&lt;/div&gt;" style="shape=partialRectangle;html=1;whiteSpace=wrap;connectable=0;strokeColor=inherit;overflow=hidden;fillColor=none;top=0;left=0;bottom=0;right=0;pointerEvents=1;fontSize=13;labelBackgroundColor=none;swimlaneLine=1;" parent="P1MDgO6zlZVomxwXiuD8-30" vertex="1">
          <mxGeometry width="430" height="81" as="geometry">
            <mxRectangle width="430" height="81" as="alternateBounds" />
          </mxGeometry>
        </mxCell>
        <mxCell id="P1MDgO6zlZVomxwXiuD8-32" value="" style="shape=partialRectangle;html=1;whiteSpace=wrap;connectable=0;strokeColor=default;overflow=hidden;fillColor=none;top=0;left=0;bottom=0;right=0;pointerEvents=1;fontSize=13;labelBackgroundColor=none;swimlaneLine=1;" parent="P1MDgO6zlZVomxwXiuD8-30" vertex="1">
          <mxGeometry x="430" width="280" height="81" as="geometry">
            <mxRectangle width="280" height="81" as="alternateBounds" />
          </mxGeometry>
        </mxCell>
        <mxCell id="P1MDgO6zlZVomxwXiuD8-34" value="" style="shape=tableRow;horizontal=0;startSize=0;swimlaneHead=0;swimlaneBody=0;strokeColor=inherit;top=0;left=0;bottom=0;right=0;collapsible=0;dropTarget=0;fillColor=none;points=[[0,0.5],[1,0.5]];portConstraint=eastwest;fontSize=13;labelBackgroundColor=none;swimlaneLine=1;" parent="P1MDgO6zlZVomxwXiuD8-25" vertex="1">
          <mxGeometry y="142" width="710" height="85" as="geometry" />
        </mxCell>
        <mxCell id="P1MDgO6zlZVomxwXiuD8-35" value="&lt;font style=&quot;font-size: 21px;&quot;&gt;&lt;b&gt;Marken&lt;/b&gt;&amp;nbsp;auf einer Stelle&lt;/font&gt;&lt;div style=&quot;font-size: 21px;&quot;&gt;&lt;font style=&quot;font-size: 21px;&quot;&gt;(Zustandsausprägung, kann sich ändern)&lt;/font&gt;&lt;/div&gt;" style="shape=partialRectangle;html=1;whiteSpace=wrap;connectable=0;strokeColor=inherit;overflow=hidden;fillColor=none;top=0;left=0;bottom=0;right=0;pointerEvents=1;fontSize=13;labelBackgroundColor=none;swimlaneLine=1;" parent="P1MDgO6zlZVomxwXiuD8-34" vertex="1">
          <mxGeometry width="430" height="85" as="geometry">
            <mxRectangle width="430" height="85" as="alternateBounds" />
          </mxGeometry>
        </mxCell>
        <mxCell id="P1MDgO6zlZVomxwXiuD8-36" value="" style="shape=partialRectangle;html=1;whiteSpace=wrap;connectable=0;strokeColor=inherit;overflow=hidden;fillColor=none;top=0;left=0;bottom=0;right=0;pointerEvents=1;fontSize=13;labelBackgroundColor=none;swimlaneLine=1;" parent="P1MDgO6zlZVomxwXiuD8-34" vertex="1">
          <mxGeometry x="430" width="280" height="85" as="geometry">
            <mxRectangle width="280" height="85" as="alternateBounds" />
          </mxGeometry>
        </mxCell>
        <mxCell id="P1MDgO6zlZVomxwXiuD8-38" value="" style="shape=tableRow;horizontal=0;startSize=0;swimlaneHead=0;swimlaneBody=0;strokeColor=inherit;top=0;left=0;bottom=0;right=0;collapsible=0;dropTarget=0;fillColor=none;points=[[0,0.5],[1,0.5]];portConstraint=eastwest;fontSize=13;labelBackgroundColor=none;swimlaneLine=1;" parent="P1MDgO6zlZVomxwXiuD8-25" vertex="1">
          <mxGeometry y="227" width="710" height="81" as="geometry" />
        </mxCell>
        <mxCell id="P1MDgO6zlZVomxwXiuD8-39" value="&lt;font style=&quot;font-size: 21px;&quot;&gt;&lt;b&gt;Transition&lt;/b&gt;&amp;nbsp;&lt;/font&gt;&lt;div style=&quot;font-size: 21px;&quot;&gt;&lt;font style=&quot;font-size: 21px;&quot;&gt;(Aktivität, kann schalten / stattfinden)&amp;nbsp;&lt;/font&gt;&lt;/div&gt;" style="shape=partialRectangle;html=1;whiteSpace=wrap;connectable=0;strokeColor=inherit;overflow=hidden;fillColor=none;top=0;left=0;bottom=0;right=0;pointerEvents=1;fontSize=13;labelBackgroundColor=none;swimlaneLine=1;" parent="P1MDgO6zlZVomxwXiuD8-38" vertex="1">
          <mxGeometry width="430" height="81" as="geometry">
            <mxRectangle width="430" height="81" as="alternateBounds" />
          </mxGeometry>
        </mxCell>
        <mxCell id="P1MDgO6zlZVomxwXiuD8-40" value="" style="shape=partialRectangle;html=1;whiteSpace=wrap;connectable=0;strokeColor=inherit;overflow=hidden;fillColor=none;top=0;left=0;bottom=0;right=0;pointerEvents=1;fontSize=13;opacity=90;labelBackgroundColor=none;swimlaneLine=1;" parent="P1MDgO6zlZVomxwXiuD8-38" vertex="1">
          <mxGeometry x="430" width="280" height="81" as="geometry">
            <mxRectangle width="280" height="81" as="alternateBounds" />
          </mxGeometry>
        </mxCell>
        <mxCell id="P1MDgO6zlZVomxwXiuD8-61" style="shape=tableRow;horizontal=0;startSize=0;swimlaneHead=0;swimlaneBody=0;strokeColor=inherit;top=0;left=0;bottom=0;right=0;collapsible=0;dropTarget=0;fillColor=none;points=[[0,0.5],[1,0.5]];portConstraint=eastwest;fontSize=13;labelBackgroundColor=none;swimlaneLine=1;" parent="P1MDgO6zlZVomxwXiuD8-25" vertex="1">
          <mxGeometry y="308" width="710" height="102" as="geometry" />
        </mxCell>
        <mxCell id="P1MDgO6zlZVomxwXiuD8-62" value="&lt;font style=&quot;font-size: 21px;&quot;&gt;&lt;b&gt;Kante von Stelle zu Transition&lt;/b&gt; (Vorbedingung)&lt;/font&gt;" style="shape=partialRectangle;html=1;whiteSpace=wrap;connectable=0;strokeColor=inherit;overflow=hidden;fillColor=none;top=0;left=0;bottom=0;right=0;pointerEvents=1;fontSize=13;labelBackgroundColor=none;swimlaneLine=1;" parent="P1MDgO6zlZVomxwXiuD8-61" vertex="1">
          <mxGeometry width="430" height="102" as="geometry">
            <mxRectangle width="430" height="102" as="alternateBounds" />
          </mxGeometry>
        </mxCell>
        <mxCell id="P1MDgO6zlZVomxwXiuD8-63" style="shape=partialRectangle;html=1;whiteSpace=wrap;connectable=0;strokeColor=inherit;overflow=hidden;fillColor=none;top=0;left=0;bottom=0;right=0;pointerEvents=1;fontSize=13;labelBackgroundColor=none;swimlaneLine=1;" parent="P1MDgO6zlZVomxwXiuD8-61" vertex="1">
          <mxGeometry x="430" width="280" height="102" as="geometry">
            <mxRectangle width="280" height="102" as="alternateBounds" />
          </mxGeometry>
        </mxCell>
        <mxCell id="P1MDgO6zlZVomxwXiuD8-42" value="" style="shape=tableRow;horizontal=0;startSize=0;swimlaneHead=0;swimlaneBody=0;strokeColor=inherit;top=0;left=0;bottom=0;right=0;collapsible=0;dropTarget=0;fillColor=none;points=[[0,0.5],[1,0.5]];portConstraint=eastwest;fontSize=13;labelBackgroundColor=none;swimlaneLine=1;" parent="P1MDgO6zlZVomxwXiuD8-25" vertex="1">
          <mxGeometry y="410" width="710" height="110" as="geometry" />
        </mxCell>
        <mxCell id="P1MDgO6zlZVomxwXiuD8-43" value="&lt;font style=&quot;font-size: 21px;&quot;&gt;&lt;b style=&quot;&quot;&gt;Kante von Transition zu Stelle&lt;/b&gt; (Nachbedingung)&lt;/font&gt;" style="shape=partialRectangle;html=1;whiteSpace=wrap;connectable=0;strokeColor=inherit;overflow=hidden;fillColor=none;top=0;left=0;bottom=0;right=0;pointerEvents=1;fontSize=13;labelBackgroundColor=none;swimlaneLine=1;" parent="P1MDgO6zlZVomxwXiuD8-42" vertex="1">
          <mxGeometry width="430" height="110" as="geometry">
            <mxRectangle width="430" height="110" as="alternateBounds" />
          </mxGeometry>
        </mxCell>
        <mxCell id="P1MDgO6zlZVomxwXiuD8-44" value="" style="shape=partialRectangle;html=1;whiteSpace=wrap;connectable=0;strokeColor=inherit;overflow=hidden;fillColor=none;top=0;left=0;bottom=0;right=0;pointerEvents=1;fontSize=13;labelBackgroundColor=none;swimlaneLine=1;" parent="P1MDgO6zlZVomxwXiuD8-42" vertex="1">
          <mxGeometry x="430" width="280" height="110" as="geometry">
            <mxRectangle width="280" height="110" as="alternateBounds" />
          </mxGeometry>
        </mxCell>
        <mxCell id="P1MDgO6zlZVomxwXiuD8-56" style="shape=tableRow;horizontal=0;startSize=0;swimlaneHead=0;swimlaneBody=0;strokeColor=inherit;top=0;left=0;bottom=0;right=0;collapsible=0;dropTarget=0;fillColor=none;points=[[0,0.5],[1,0.5]];portConstraint=eastwest;fontSize=13;labelBackgroundColor=none;swimlaneLine=1;" parent="P1MDgO6zlZVomxwXiuD8-25" vertex="1">
          <mxGeometry y="520" width="710" height="110" as="geometry" />
        </mxCell>
        <mxCell id="P1MDgO6zlZVomxwXiuD8-57" value="&lt;div&gt;&lt;span style=&quot;background-color: initial;&quot;&gt;&lt;b&gt;&lt;font style=&quot;font-size: 21px;&quot;&gt;Schlinge&lt;/font&gt;&lt;/b&gt;&lt;/span&gt;&lt;/div&gt;&lt;div&gt;&lt;span style=&quot;background-color: initial;&quot;&gt;&lt;font style=&quot;font-size: 21px;&quot;&gt;(Nebenbedingung)&lt;/font&gt;&lt;/span&gt;&lt;br&gt;&lt;/div&gt;" style="shape=partialRectangle;html=1;whiteSpace=wrap;connectable=0;strokeColor=inherit;overflow=hidden;fillColor=none;top=0;left=0;bottom=0;right=0;pointerEvents=1;fontSize=13;labelBackgroundColor=none;swimlaneLine=1;" parent="P1MDgO6zlZVomxwXiuD8-56" vertex="1">
          <mxGeometry width="430" height="110" as="geometry">
            <mxRectangle width="430" height="110" as="alternateBounds" />
          </mxGeometry>
        </mxCell>
        <mxCell id="P1MDgO6zlZVomxwXiuD8-58" style="shape=partialRectangle;html=1;whiteSpace=wrap;connectable=0;strokeColor=inherit;overflow=hidden;fillColor=none;top=0;left=0;bottom=0;right=0;pointerEvents=1;fontSize=13;labelBackgroundColor=none;swimlaneLine=1;" parent="P1MDgO6zlZVomxwXiuD8-56" vertex="1">
          <mxGeometry x="430" width="280" height="110" as="geometry">
            <mxRectangle width="280" height="110" as="alternateBounds" />
          </mxGeometry>
        </mxCell>
        <mxCell id="bSiH7g8bPL2_hH1thWB7-2" value="" style="points=[[0.145,0.145,0],[0.5,0,0],[0.855,0.145,0],[1,0.5,0],[0.855,0.855,0],[0.5,1,0],[0.145,0.855,0],[0,0.5,0]];shape=mxgraph.bpmn.event;html=1;verticalLabelPosition=bottom;labelBackgroundColor=#ffffff;verticalAlign=top;align=center;perimeter=ellipsePerimeter;outlineConnect=0;aspect=fixed;outline=standard;symbol=general;" parent="1" vertex="1">
          <mxGeometry x="590" y="395" width="50" height="50" as="geometry" />
        </mxCell>
        <mxCell id="bSiH7g8bPL2_hH1thWB7-4" value="" style="points=[[0.145,0.145,0],[0.5,0,0],[0.855,0.145,0],[1,0.5,0],[0.855,0.855,0],[0.5,1,0],[0.145,0.855,0],[0,0.5,0]];shape=mxgraph.bpmn.event;html=1;verticalLabelPosition=bottom;labelBackgroundColor=#ffffff;verticalAlign=top;align=center;perimeter=ellipsePerimeter;outlineConnect=0;aspect=fixed;outline=standard;symbol=general;" parent="1" vertex="1">
          <mxGeometry x="590" y="480" width="50" height="50" as="geometry" />
        </mxCell>
        <mxCell id="bSiH7g8bPL2_hH1thWB7-5" value="" style="shape=waypoint;sketch=0;fillStyle=solid;size=6;pointerEvents=1;points=[];fillColor=none;resizable=0;rotatable=0;perimeter=centerPerimeter;snapToPoint=1;" parent="1" vertex="1">
          <mxGeometry x="605" y="490" width="20" height="20" as="geometry" />
        </mxCell>
        <mxCell id="bSiH7g8bPL2_hH1thWB7-6" value="" style="shape=waypoint;sketch=0;fillStyle=solid;size=6;pointerEvents=1;points=[];fillColor=none;resizable=0;rotatable=0;perimeter=centerPerimeter;snapToPoint=1;" parent="1" vertex="1">
          <mxGeometry x="605" y="500" width="20" height="20" as="geometry" />
        </mxCell>
        <mxCell id="bSiH7g8bPL2_hH1thWB7-7" value="" style="whiteSpace=wrap;html=1;aspect=fixed;" parent="1" vertex="1">
          <mxGeometry x="651.5" y="660" width="50" height="50" as="geometry" />
        </mxCell>
        <mxCell id="bSiH7g8bPL2_hH1thWB7-8" value="" style="whiteSpace=wrap;html=1;aspect=fixed;" parent="1" vertex="1">
          <mxGeometry x="590" y="563" width="50" height="50" as="geometry" />
        </mxCell>
        <mxCell id="4Dsz1V0SEEpVi8gBza9M-1" style="edgeStyle=orthogonalEdgeStyle;rounded=0;orthogonalLoop=1;jettySize=auto;html=1;exitX=1;exitY=0.5;exitDx=0;exitDy=0;exitPerimeter=0;entryX=0;entryY=0.5;entryDx=0;entryDy=0;" parent="1" source="bSiH7g8bPL2_hH1thWB7-9" target="bSiH7g8bPL2_hH1thWB7-7" edge="1">
          <mxGeometry relative="1" as="geometry" />
        </mxCell>
        <mxCell id="bSiH7g8bPL2_hH1thWB7-9" value="" style="points=[[0.145,0.145,0],[0.5,0,0],[0.855,0.145,0],[1,0.5,0],[0.855,0.855,0],[0.5,1,0],[0.145,0.855,0],[0,0.5,0]];shape=mxgraph.bpmn.event;html=1;verticalLabelPosition=bottom;labelBackgroundColor=#ffffff;verticalAlign=top;align=center;perimeter=ellipsePerimeter;outlineConnect=0;aspect=fixed;outline=standard;symbol=general;" parent="1" vertex="1">
          <mxGeometry x="528.5" y="660" width="50" height="50" as="geometry" />
        </mxCell>
        <mxCell id="bSiH7g8bPL2_hH1thWB7-12" value="" style="points=[[0.145,0.145,0],[0.5,0,0],[0.855,0.145,0],[1,0.5,0],[0.855,0.855,0],[0.5,1,0],[0.145,0.855,0],[0,0.5,0]];shape=mxgraph.bpmn.event;html=1;verticalLabelPosition=bottom;labelBackgroundColor=#ffffff;verticalAlign=top;align=center;perimeter=ellipsePerimeter;outlineConnect=0;aspect=fixed;outline=standard;symbol=general;" parent="1" vertex="1">
          <mxGeometry x="651.5" y="760" width="50" height="50" as="geometry" />
        </mxCell>
        <mxCell id="bSiH7g8bPL2_hH1thWB7-13" value="" style="whiteSpace=wrap;html=1;aspect=fixed;" parent="1" vertex="1">
          <mxGeometry x="528.5" y="760" width="50" height="50" as="geometry" />
        </mxCell>
        <mxCell id="bSiH7g8bPL2_hH1thWB7-15" value="" style="points=[[0,0.5,0,0,0],[0.145,0.145,0,0,0],[0.145,0.855,0,0,0],[0.5,0,0,0,0],[0.5,1,0,0,0],[0.98,0.38,0,0,0],[0.98,0.62,0,0,0]];shape=mxgraph.bpmn.event;html=1;verticalLabelPosition=bottom;labelBackgroundColor=#ffffff;verticalAlign=top;align=center;perimeter=ellipsePerimeter;outlineConnect=0;aspect=fixed;outline=standard;symbol=general;" parent="1" vertex="1">
          <mxGeometry x="528.5" y="870" width="50" height="50" as="geometry" />
        </mxCell>
        <mxCell id="bSiH7g8bPL2_hH1thWB7-16" value="" style="whiteSpace=wrap;html=1;aspect=fixed;points=[[0,0,0,0,0],[0,0.38,0,0,0],[0,0.62,0,0,0],[0,1,0,0,0],[0.25,0,0,0,0],[0.25,1,0,0,0],[0.5,0,0,0,0],[0.5,1,0,0,0],[0.75,0,0,0,0],[0.75,1,0,0,0],[1,0,0,0,0],[1,0.25,0,0,0],[1,0.5,0,0,0],[1,0.75,0,0,0],[1,1,0,0,0]];" parent="1" vertex="1">
          <mxGeometry x="651.5" y="870" width="50" height="50" as="geometry" />
        </mxCell>
        <mxCell id="bSiH7g8bPL2_hH1thWB7-17" style="edgeStyle=orthogonalEdgeStyle;rounded=0;orthogonalLoop=1;jettySize=auto;html=1;exitX=0.98;exitY=0.38;exitDx=0;exitDy=0;exitPerimeter=0;entryX=0;entryY=0.38;entryDx=0;entryDy=0;entryPerimeter=0;" parent="1" source="bSiH7g8bPL2_hH1thWB7-15" target="bSiH7g8bPL2_hH1thWB7-16" edge="1">
          <mxGeometry relative="1" as="geometry" />
        </mxCell>
        <mxCell id="bSiH7g8bPL2_hH1thWB7-19" style="edgeStyle=orthogonalEdgeStyle;rounded=0;orthogonalLoop=1;jettySize=auto;html=1;exitX=0;exitY=0.62;exitDx=0;exitDy=0;exitPerimeter=0;entryX=0.98;entryY=0.62;entryDx=0;entryDy=0;entryPerimeter=0;" parent="1" source="bSiH7g8bPL2_hH1thWB7-16" target="bSiH7g8bPL2_hH1thWB7-15" edge="1">
          <mxGeometry relative="1" as="geometry" />
        </mxCell>
        <mxCell id="bSiH7g8bPL2_hH1thWB7-24" value="" style="rounded=0;whiteSpace=wrap;html=1;strokeColor=none;" parent="1" vertex="1">
          <mxGeometry x="-379" y="380" width="389" height="480" as="geometry" />
        </mxCell>
        <mxCell id="bSiH7g8bPL2_hH1thWB7-22" value="" style="shape=image;verticalLabelPosition=bottom;labelBackgroundColor=default;verticalAlign=top;aspect=fixed;imageAspect=0;image=data:image/png,iVBORw0KGgoAAAANSUhEUgAAAiUAAAJeCAYAAABriHXpAAAAAXNSR0IArs4c6QAAAARnQU1BAACxjwv8YQUAAAAJcEhZcwAADsMAAA7DAcdvqGQAAJi7SURBVHhe7d0FmFRlFwfwQ3d3l3R3Kg2CgAgioYKCICAISChgICo2BiBhIFKioFJSElLS3d3dHQv3m//hXT5id9mdnZ2de+//9zwrzN0B1t2Ze88973nPiWF5CBGRx5UrV+Svv/6SuXPnSsaMGaVQoUJy+vRp2bJli5QvX14aNmwoiRIlMs8mIvItBiVEpK5duyYfffSRnDhxQvr37y/p0qUzn7nzuQkTJkiKFCmkQYMG5igRkW/FNL8SkcstXrxYhg4dKq1bt74vILl165aMGzdOOnfuLGvWrDFHiYh8j0EJEalZs2ZJ8uTJddnmXsiSTJ8+XX9fvHhx/TVUt6/IhmUb5HyQeUxEFAEMSohIHTlyRHbv3q3ByYULF+T27dt6HDUkyKCsXLlS6tWrp8eCWbeD5OqVK3Lx3Gk5uHen/PjeS/J41W6y/qJ5AhFRBLCmhIhUnz595LPPPpMECRJIyZIlJVeuXJoZqVOnjuTIkUNixnz4Hubq4RXy7le/SoJkaSRp0iSyavIXMmF+Lvn3zFx5IoV5EhFRODEoISK1bds2adSokezYsUPrSIIlSZJEg5W2bdtKrFixzNGQDXqtpLz+XXIGJUTkFS7fEJHKly+fzJ49W7799lstdi1SpIjEiRNHLl68KH379tW6Et7DEFFUYlBCRHdlzpxZOnbsKD/++KOsW7dONmzYIBUqVJAzZ87ImDFjtI8JEVFUYVBC5GJYphk7dqy88cYb2iDtXjFixNDsyfDhwyV79uxy8+bNu8WvRERRgUEJkYutX79eunbtKl999ZXMmTMnxKAjderUWldSsGBBLYIlIooqDEqIXGzXrl1aM1KsWDF54oknQtxhs337dokfP740bdpUYseObY4SEfkegxIiF0P2o3379tqbBIHJg1BLgh4l2HmD5xIRRSVuCSZyMbz9f/75Zzl//rz2JMmQIYPWkqCgFY3UsBundOnS8uKLL0rcuHHNnwodtwQTUWQwKCFyuaCgINm/f7/s2bNHg5NTp05JmjRpdP4NGqilT59eA5XwYFBCRJHBoISIfIZBCRFFBmtKiIiIKCAwKCGiSLB0G/Ht20Fy/coFOXf5mufYFTl/6pIEBd3SzzEXS0ThxeUbIvLe9YPyTYd3ZEuiVJI81iVZseRfOXpR5LGSNaRo2muy/2oK6dCrj1TMybUcIno0BiVEREQUELh8Q0RERAGBQQkREREFBAYlREREFBAYlBAREVFAYFBCREREAYFBCREREQUEBiVEREQUEBiUEBERUUBgUEJEREQBgUEJERERBQS2mSei+9y6dUsuXLggV65ckWvXrsmxY8dk586dcvbsWTl//rx+LlasWJIsWTL9SJEiheTJk0fSpEkj8ePHl0SJEknixIklZkze8xBRxDAoISK1cuVKWbJkiaxZs0Z27NihwcjJkyc1SMmePbsGGgg48IHpv5cvX9aPixcvysGDBzUgQWCSKVMmyZs3r5QpU0YqVqyoAQsDFCIKDwYlRC4VFBSkAcWUKVPkvffek+PHj0u8ePEkbdq08uSTT0qFChWkZMmSkjt3bvMnQnfjxg3ZsmWLrFq1ShYsWCALFy7UrAqO4+/p1auX/oqAhgEKEYWGQQmRyyBQmDt3rvz+++8ya9YsSZkypdSrV0+qVKkiBQsWlMyZM5tneu/mzZuyf/9+2bBhg8yePVtmzpypmZSnnnpKmjdvLqVKlTLPJCL6PwYlRC6CTMbLL78smzZtkgIFCsh3330nlStXNp+NOghSfvrpJ+nSpYtcv35dMzHffPONLu0QEQVjHpXIBRCEtGjRQpdQkAmZMGGCLF++3C8BCcSJE0deffVVrVMZPHiwLhWVK1dOevfuLQcOHDDPIiK3Y6aEyMHw9h41apS8/vrrEjt2bA0IGjVqpEsp0QVf06VLl+SLL76QDz/8UB577DGZPHmy5MuXzzyDiNyKmRIihzpx4oT07NlTunfvLs8//7ysXbtWsyXRGZBAjBgxJEmSJPL+++/LihUrdAkHO3UGDRqk25CJyL2YKSFyoF27dkmzZs10aeT777+XunXr6hJKIMIOoCFDhsgHH3wgtWrVkvHjx0d74ERE0YOZEiIHwT0GilmbNGmiGYmpU6fK008/HbABCSBr8tZbb8mYMWP0a2/YsKHu3CEi92FQQuQg06ZNkwYNGkjq1Knlzz//lLJly5rPBD4ETwiidu/erb/ftm2b+QwRuQWXb4gcAG9j7KZBlqFo0aK6BIL+I3a0fft2adq0qRbDIkjJnz+/+QwROR2DEiIHmDdvntaQPP7449oPBDNp7Ayzdho3biwJEiTQwARdZonI+RiUENkcen8gGEGLeLR3t2uG5EFbt27VDrBYivr777/1VyJyNtaUENnYqVOn7l6458yZ45iABNC3BDuHMBwQO3OIyPkYlBDZFKb34mK9efNm/TVDhgzmM86A3UPVq1eX4cOHy9ChQ+WPP/7Q2hkici4GJUQ2NWPGDBk7dqwMHDhQL95Ohd1EL7zwgrRr105Wr15tjhKRE7GmhMiGzp8/L5kyZdJiULSRdzo0WMPMnvr162s/EyJyJmZKiGwGE3f79++vDdE6d+5sjjobGqz99ttvmh3CbhwiciYGJUQ2s3fvXhk5cqS8+eabUrJkSXPU+apVqya1a9eWli1b6o4jInIeBiVENoLV1nfffVd3pvTq1UuLQd0CmSEMGLx27ZqMHj2aRa9EDsSghMhGMBtmypQp0rFjR4kZ031v32LFikmrVq3k119/1d1HROQsDEqIbCIoKEgGDx6sBa5YynAjZIbef/992bdvn9aXEJGzMCghsomjR4/qfJvnn39eMmbMaI66DxrF1alTRycLcwmHyFkYlBDZxJYtW+Tw4cO6dONmsWLF0r4smCLMviVEzsKghMgm0I+kRo0aHE7nge9D7NixdSYOsyVEzsGghMgGrl+/LpMnT9aR/iSSJUsWefLJJ2XFihX6vSEiZ2BQQmQDmP6bMGFCyZMnjzlCbdq00UnCV69eNUeIyO4YlBDZACYAo8ATO2/ojrp168qRI0fkzJkz5ggR2R1n3xAFOLSVRw0FMiXTpk3TQk9fuXHjhqxbt067xKIpWfr06aVw4cI6cdjbxmw4pezevVsLUU+ePCkpUqSQ3Llza5YHDdB8qUyZMrobqUuXLuYIEdkZgxKiAHfq1CntS/L000/LBx98YI5GDt72s2fPliZNmuiwu3shcHj99dfl448/jnAQgW3LzZo10+WmB5UqVUomTpwo2bJlM0ciD43U0ESNQ/qInIHLN0QBDhOBETgg2+ALp0+flj59+uiE4QcDEkBm5ssvv5SKFStqIWl44M9gYF6lSpVCDEgA3WiLFCmiDeB8BZODkekhImdgUEIU4BCUXLp0ySdBCbIKn3/+uXz66ady+fJlczRkK1eulBdffFEuXLhgjoRuyZIl0q5dO9mzZ485EjL8Xd27d5dFixaZI5GTLl06XSZCt1sisj8GJUQBDrtLUO+RM2dOc8R7Bw8e1Lkx4V213bFjhwwYMEBu375tjoTs+++/1+ApPFDH8sILL8jZs2fNEe+hZwtmALHYlcgZGJQQBThcxJEJQMFoZKHXyYEDB8yj8Jk6daocP37cPHrYlStX5K+//jKPwgedaefOnWseeS9BggQalDwq60NE9sCghCjAoV4D4saNq79GRkSyJMEOHTqku3NCM2HCBA1MIgLLSKgxiWydPb4n2CXEoITIGRiUEAU4XMDjxYtnHkXOzp07ze/CD0tHYV30N23aZH4XMdhVFNmgBN8XZEoiGhQRUWBiUEJkA75qpZ4kSRLzu/BDXxTMmQmNt8tKWHrxthdKMARsCGwi+/cQUWBgUEIU4NArBBff4GWcyKhQoYL5XfglTZpUUqVKZR49DD1UIgpBBPqVRDaYQBYHQUmiRInMESKyMwYlRAEOQQkyFSH1FImoFi1ahJn1CAl2/eTIkcM8ehgCnezZs5tH4YNaEPRBiSwEJdgZxKCEyBkYlBAFONRN4CLui22vCATKlStnHj0a6jXQaO1Ryz4dOnSIUPt7TDsuXbq0eeQ91Logi5Q8eXJzhIjsjEEJUYBDQIBMgDdFqg/Cxbt///4SP358cyR0CDJ69Ogh9erVM0dCh6CkQIEC4VqOyZcvn4wcOTLCGZuQnDhxQv+fkiVLZo4QkZ0xKCEKcLjgJk6cWDuX+kLVqlV1Bg0G74UGRajovIosSXggcEI/E2RAwpqXg/oTzKlBBsYX0AwOreuJyBkYlBAFOAQluOj7KiiBp556StvI9+vXT7JmzWqO3smONGrUSLZs2aKt6COSgUDh6vjx4+XPP/+Uxx9//L5MCAKH33//XRumlSxZ0hyNPPRQKVq0qHlERHbHKcFEAQ5vUUzeRVZg3rx54Vp6iQj8/Wj5jqJRtG33xbIKoHcI6mCwZTiqClExD2jQoEHy5JNPmiNEZGfMlBAFONRpYMnl6NGjcuTIEXPUd/D3p0yZUjJmzOizgAQSJkyoU3yjKiBBPQkasJUoUcIcISK7Y1BCZAPVq1fXCzCyJXQHalOQKUH9CxE5A4MSIhvIlSuX1n5gXgzdMWLECC3WRUaGiJyBQQmRDWC3yksvvaSFpCwDE1mzZo3s3r1bd/NEpD8KEQU2BiVENlGrVi3Zt2+frFixwhxxrzlz5mhwVrt2bXOEiJyAQQmRTWDLLRqPYauuL+bg2NWNGzdk+vTp0rJlS0mdOrU5SkROwKCEyCbQM6RJkyaycOFC2bhxoznqPosWLZKtW7fK+++/b44QkVMwKCGyCWzdffXVV3UODrqnuhGyJO3bt5c6depIpkyZzFEicgoGJUQ2gsZpH3/8sXz//ffap8Nt0B4fdTVoJuerVvVEFDjY0ZXIZk6fPq0FnmnSpJFp06a5ZvfJhQsXNEOCjBGWsBiUEDkP39VENoPuq926dZMFCxa4ahln+PDhcvjwYZ2hw4CEyJmYKSGyqbp162qHVzcUva5du1ZKlSolX3zxhQZkRORMDEqIbApzcLCcgW3CP/30U5TNmIluJ0+elPr16+v/H7IkyBQRkTMxB0pkUxig98EHH2jxJwpfnapXr166bPPHH38wICFyOAYlRDbWoEEDeffdd3VZY8aMGeaoM1y/fl0++eQT+euvv2TYsGHap4WInI1BCZHN9e3bV5o2baofM2fONEftD0s1H374oRa4sp08kTuwpoTIAS5duqQD+9DpdPTo0VKiRAnzGftBC/0pU6ZI27ZttWtr586dzWeIyOmYKSFygMSJE8svv/wipUuXloYNG9o6YzJmzBh55ZVXpGvXrhqYEJF7MFNC5CAXL17UC/l///2nxa81a9bUZmN2cPXqVRk1apT07t1b+vXrJ126dDGfISK3YKaEyEGSJEkiP//8s07QbdWqlXz11Vc6LybQYcnmzTff1J02gwcPlg4dOpjPEJGbMFNC5EC3bt2SgQMHymeffSaNGjXSglGM+Q/ErMmWLVukRYsWmuXB0k358uXNZ4jIbZgpIXIgzMPp2bOn9vZYs2aN1KpVSyZNmmQ+GxgQhCBowrbm/Pnza8t8BiRE7sZMCZHDYWmkR48e8sMPP0jlypXlu+++kyxZskTbID8sJ+3fv1+aN28uO3bs0AZwnTp1cs1gQSIKHTMlRA4XJ04c+fLLL3Wbbdy4cTUw6dixoyxevNg8wz+uXbummRsEI8WLF9edQsuXL9eCVgYkRATMlBC5CN7us2fPlnbt2smBAwekbNmyWntSoUIF8wzfw785YcIEefvtt2XPnj1SpUoVLcbNmjWreQYR0R0MSohcCEsoqOFA5gIZExTBYrhfkSJFJFeuXJI7d25JmjSpeXb44XRy4sQJ2bVrl+zevVvrWYIzNDVq1JAmTZpIxYoVJXbs2OZPEBH9H4MSIhdDvcmFCxd0vszXX3+tNR5Y7okXL55ky5ZNSpUqpR8FCxaUVKlSSYoUKSR58uRy+/ZtOXPmjJw9e1ZOnz4tq1atktWrV2sQcvz4cQ168FGpUiXd6otAJGHChFymIaIwMSghortOnTolmzZtkvXr1+tSy5EjR+TkyZMagCB4wY4ZfMSMGVMH5KGTLH5FwJImTRqdXJw3b165fPmyzuTZtm2bFtUSEYUHgxIiChUyKei0iom9+D2yH/gV/U6wJIOsCn5FZiV+/Ph3l2UQ0GC5plu3bpxdQ0ThxqCEiBQCCRSf+qLeA8ELeqNgyQY1JawhIaLw4JZgIpKFCxfKq6++qssuvhBc2Ipi12PHjpmjRERhY1BC5HJLliyR2rVra5Eqlml8BdOKUfS6b98+c4SIKGwMSohcDEs2bdq00cZm2Elz6NAh85nIK1CggKRPn1535RARhQeDEiKXQkCCrqrbt2/XxygvW7p0qf7eF7BDp379+jJz5kxzhIgobAxKiFwIW39ffPFF3ep7L1+3nkex63///Sfnz583R4iIQseghMhl0G+kZs2amhXB1l5kNIIhKPHlhrycOXNqszVmS4goPBiUELnIuXPnpFWrVrJlyxapXr26fPTRR5I2bVpdxoHDhw9rcaqvoKYEnWF/++03c4SIKHQMSohcBM3McuTIoYHHP//8o0s4aBM/b948nXcDCFh8JVGiRNqmft26dbpkREQUFgYlRC6BzqxfffWVTgXGkgoMHjxYSpYsqR1ZBw0apEHE5s2b9XO+Uq1aNc3QoLCWiCgsDEqIXCJBggR3gxFA7ciPP/4oZcqU0Y6rqDN5++23dfaNLyEowbwcTA4mIgoLgxIil9q4caPuvilevPjdgtfgib6+bKKGYKhKlSqyfPlyc4SIKGQMSohcCp1cY8WKpTUfwRCcNG/eXNvE+1KDBg18vt2YiJyHQQmRC926dUtWrFihu2Py5ctnjt6Byb8ITnwJmRI0aUNRLRFRaBiUELnQlStXdPkG24P9McE3derUkiVLFvnrr7/MESKihzEoIXIh7IZB5gJBiT8kS5ZMcuXKJZMmTTJHiIgexqCEyIXQlyRjxozy2GOPmSNRC8WuRYsWlbVr13IJh4hCxaCEyIWQsbi3wNUfsKvn0qVLsm3bNnOEiOh+DEqIXAZN1ObPn69bgf2pfPnycuPGDdm6das5QkR0PwYlRC6zatUqCQoKkoIFC5oj/pEiRQoNhHzdMZaInINBCZHLYDowajwe3ArsD/Xq1dM5OEREIWFQQuQi6E+CoCBlypSSPXt2c9R/GjZsqMWuREQhYVBC5CLnz5/XGTRNmjTxeYO08ECztoQJE2rjNiKiBzEoIXIRBCWY1tuoUSNzxL+wbIRtyH/++ac5QkT0fwxKiFxky5YtOnjP39uBg8WPH19y584tU6ZMkdu3b5ujRER3MCghcpE5c+ZI2bJlo2XpBjAAELt+kK05duyYOUpEdAeDEiIXmTt3rpQsWdI8ih7FihXTLcnsV0JED2JQQuQSp06dkp07d0qBAgXMkehRokQJ3QXEfiVE9CAGJUQusXLlSi00zZo1qzkSPZInTy6FChWSHTt2iGVZ5igREYMSItdYvny5JEmSRLJkyWKORJ/atWtr1gYZEyKiYAxKiFwAF/81a9ZIqlSpdDpwdENQgkwJd+AQ0b0YlBC5wNmzZ+XIkSPyxBNP6Jbg6FamTBk5ffq0nDlzxhwhImJQQuQKuPhjC261atXMkeiFfiWobfn333/NESIiBiVEroCdNwhMHn/8cXMkeqFfCTq7zpo1yxwhImJQQuQKmzZt0gF8GMQXCLCEhCnFM2fONEeIiBiUELnCqlWrpEiRIuZR9ENH2Zw5c8rx48e11oWICBiUELkAgpKiRYuaR4EBM3CQMcE8HiIiYFBC5HBXr17VCz9mzgQS1JQgKNm2bZs5QkRux6CEyOFQT4JOrmnSpDFHAkOmTJkkceLEsnv3bnZ2JSLFoITI4VavXi3JkiWT1KlTmyOBAVmS8uXLy6FDh+TmzZvmKBG5GYMSIodDJ1cEJYGWKQFsUT58+LDcuHHDHCEiN2NQQuRgQUFBOo03Xbp0Oggv0FSqVIlBCRHdxaCEyMHQyv3cuXMBt/MmWMmSJeXkyZNy5coVc4SI3IxBCZGDISC5ePFiwO28CYZ28yh4Xb9+vTlCRG7GoITIwc6fPy+XLl2S/PnzmyOBJ1euXLJs2TLziIjcjEEJkYMhU4KgBC3dAxWDEiIKxqCEyMGw3RZbgbH7JlDlyJFDO87evn3bHCEit2JQQuRgO3bskAIFCphHgQk1JZcvX5ajR4+aI0TkVgxKiBxs586dAb10A2nTppU4ceLI/v37zREicisGJUQOhkxJIBe5AoMSIgrGoITIoTBPZt++fTqNN5Ch0yyDEiICBiVEDnXs2DH9NVWqVPproEIhbrx48RiUEBGDEiKn2rNnj07hTZgwoTkSmGLHjq3ZHHR25WA+IndjUELkUHv37pVEiRJJggQJzJHAVahQITlz5oxcu3bNHCEiN2JQQuRQCEqQKbFDUFK4cGGd08OghMjdGJQQOVRwpiTQl28AQQkzJUTEoITIoeyUKcmbN6+2xL9+/bo5QkRuxKCEyIFu3Lghx48f150tKCQNdClTptRfr1y5or8SkTsxKCFyoAsXLmjWIUuWLOZI4EMAdfjwYfOIiNyIQQmRAyEoQbYkY8aM5kjgS5cunRw4cMA8IiI3YlBC5EBXr17Vnh+B3jjtXmg3z6CEyN0YlBA5EIKSoKCgu7UadsBMCRExKCFyILsGJWw1T+RuDEqIHIiZEiKyIwYlRA6EJmSoKUmRIoU5EvhQ/3L06FGdbkxE7sSghMiBkCm5ffu2rYKS4M6zZ8+e1V+JyH0YlBA50KVLlyRp0qQSK1YscyTwxY8fXxu9YTszEbkTgxIv4C4Ud3MYtY5086FDh+TIkSNy4sQJnd+BCwLuUomiy+XLlyVNmjTmkT3EixdPgygGJRSdbt26pa9BDIhEV2Q09MM5/tixY3Lq1Ckdh4AeQBQ1YlhcwA0Tvj0ovluyZIls375dduzYocEITvpYs8eLEwWFOJnGiRNHP3DHhwLDnDlz6kyPUqVKSZEiRWzR7puc4fPPP5dff/1VVq9ebY4Evv/++0/q1q0rU6ZMkccff9wcJYpaOI8vXbpU1q5dKzt37tQdYOfPn9eOyMHneFwH4saNq+d3/IqZUpkyZZI8efJIoUKF9PWaLFky8zdSZDAoeQAyHHhBIhD5/fffZfLkyRqIYNoqBpvhI3PmzJIrVy59EeIDaXIUFiKCxp9FRI0ABoELsir4Fc976qmnpEmTJlKsWDENWvACJ4oKH374ocycOVMWL15sjgS+NWvWSK1atWTUqFH6XiGKCjhX48by33//lUmTJsns2bMlZsyYWtOE8ztuKjG1Gs38cN5Onjy5nquRHcf5Hb/imoDMOM7vmNeEX8uXLy8NGzbU126GDBkkSZIk5l+kiGBQYiAYWb58ufz2228aNeNFV7lyZc1y5MuXT7JmzapbFpESD88oeETXSP/hhYvU3+7du2X9+vUyf/58jbRLly4tDRo00A+krYl86Z133tHMwz///GOOBL4tW7ZItWrVZODAgdKiRQtzlMg3cD7GjeaMGTNk5cqVOmupSpUqmsXOnj27jmRAIILjj4LL5sWLF3V5BzehyK5s3rxZ/96NGzdq9gSv5RdffFGvHRQBCErczBM1W9u2bbPq169veSJkK1OmTJbnhG6dO3fOPMO3rl+/bo0dO9YqXry45YnKrTx58lh///23denSJcsTGJlnEUVOz549rXr16plH9uAJ3C3PhcEaOnSoOUIUObdu3bI8wYj1zTffWJ4bSitx4sSWJ1iwFi9ebJ7he54bWuvll1+2UqRIYcWKFcvq3Lmz5bkxtTw3quYZFBbXFrqiDgRLM88++6x4AgR9/OOPP8qGDRukf//+UbY+iCwJ7gJxF+sJRjRSx2NkZXCHyNHt5AtYD0cq2k6CC12RIieKLGQv3nzzTSlTpox8/fXX0rZtW1m0aJHMnTtXKlasaJ7le7lz55affvpJa1RwTkcGvkSJEvrvr1u3zjyLQmWCE9dB9BozZkwrS5Ys1ooVK8zR6HHy5EmrevXqWEazChUqZO3Zs8d8hsg7r776qtWyZUvzyB7wPsiePbv17rvvmiNE3lm/fr2VIUMGPafivYCMeHTx3PBa3333neW5IdVrzqBBgzSDQyFzVabE8/8rCxcu1MgZFf6ek5+sWrVK6zuiE9Ywp02bJqNHj9ai2apVq8r333/PrAl5DZkSFOzZCYoNY8SIoVlLIm+gHUOfPn00M4HzPGr4hg4dGq11e8j+dejQQTZt2qS/vvfee/LCCy/oTh96mKuCkp9//lnq16+v1deovEZQgsKmQIALCF6oKMJ65pln5LXXXpPOnTubzxJFDC7sdtvdxaCEIgMbCsqVKyeDBw+WP//8UyZMmKDL43hNBQIs62AZCbt9sHyPrw3XIbqfK4ISBCG9e/fWKBXreujdkC1btoB5sd4LmRKsQ/7www8a5SNrsnfvXvNZovCx48WdQQl5C+d0bMVFHRVqBXHzGYi7GtGrqmTJkrorDgEU6gnRT4iv+f9zfFCC7nwdO3aUYcOG6Yt1wIABAX8HiRMztpJhSQdbk/HCRa8TovBCyhivfTthUELewJJ8nTp1pECBAtqbBzdygQ59rrBcj/N8mzZtdJMF3eHooAStgl955RVdEhk5cqTUrl1bd7/YAU7OeJOhoRSi66JFi+o+eKLwQFDCTAk53Zw5c6Rly5ZSvXp1XbbBpGm7QL8r3CQji9+vXz+tfUFW3+0cHZR07dpV1+yw9RZNyuwIDdvQ0A0dAlu1asUJqhQuuMDbMSgBu2V4KHpgCQQBSfPmzTXTYKeAJBhe8whK0IH59ddf18AEGzLczJFBCaLNbt266fIHdrGgD0nwCc+OEJDMmzdP10vRhhsdBInCwuUbcjL0+2jXrp0u1bz99tvh6rIdqPBexRLOV199JZ988oneRLt5oKsjgxI0rhk7dqwWi9phfTE8UAeDAAtTKrErB1vfiEJjx+UbBCT4cPudIoUNrd2RIalUqZLWCmIumRNgxyU+nn/+eQ1M3MpRQQlOZphb06tXL/n00091ycbOGZIHYQYPMiZYkhoxYoSro2kKmx0zJfh68ZrmoEoKDebN4KKN2kBkFbBb0SkQkKPHCrp7I/tz5MgR8xl3cVRQgqF3SINhOxjaxztRjhw5dCw9WuFjuBRRSHBhRwM1O0FQghsLuxSjk/+hmBWjQPArBug5DTY1jBkzRicTY3kK04fdxjFBCU5muFhjOi922vhjbDT+Tfx7eOHgAuCvO1NsI3vyySc1MEHDIKIHIaWNu0o7CQ5KODWbQoLpuzjnDR8+XHt8OBWuXR9//LEsWbJEvvzyS31PuIljgpKpU6dqHxJUYUd1e22kmLE3vm/fvtpDpF69etK4cWOtnkYjHAQqUQlLUnhj4o4SHQKJHpQ4cWI5d+6ceWQPqIHBe4uZEnoQaumw+xD9SFDs73QIulCGgOvZnj17zFGX8ERhtnf8+HEra9asVrNmzaybN2+ao1HDc9K02rZtq4OV8O0L6aNo0aLWzp07zZ+IOlOmTLE8d5XWv//+a44Q3YEBYNmyZTOP7OHEiRM6kK9fv37mCNEdeD3jnLt9+3ZzxB0qVqxoNW/e3DxyB0dkSrBcgzusjz76SNfkogqasaFmBbt78O+FZv369bp3PqqXVrCzCMs4KI46c+aMOUp0Z/nGbpmS4EJXLt/QvfA6xjIGtszmyZPHHHUHDO/DTpw//vjDHHE+2wclOIl98803+qLNmTOnORo1fvnlFx3qF57aEUwfRu1HVNaZIEX/7bffatdXfBAFwxKm3baNY/nGc6PE5Ru6D+pI0BgN51O3qVatmk47xnneLW0gbB+UoCAIL9io7keCOhF0VsVJM7wQmKBYKSplzZpV9+y7sSCKQodsA7YF26nYNbimJKprwsg+UE+BugpMTseOFLfBexgrABgxsnbtWnPU2WwdlJw4cUK3hmEJI6pbDGPP+LJly8yj8MEQPRTERrXWrVtrAIRx2ERgx6AEnZiRWXRS7wmKHGxgwOvi5Zdf1j4eblSqVCmpUqWKBmduYOugZPHixbreiKrsqG6Shij15s2b5lH4IHOxc+dO8yjqoKka1lrR3TCsWhdyDwQlqK+yW1CCbEmKFCnMEXI7TP3FlHfMAHMrBGMIyv766y/dheR0tg5K5s6dq1EkpulGtfPnz5vfRcyVK1fM76IO7izr1q2rQdrhw4fNUXIzLIEgU2KnYlf0+0FQ4sY0PT0Mw0eRnUarBbcrWLCgpEmTRmsanc62QQkyArNmzZIePXr4pZU8Oql6kz7EC8kf0HoZUTS6HRJh9w0KRrHEaRfBQQkzJQRffPGFFC5cWAeSul2WLFmkSJEiMmHCBMd3eY3w1Rzp4K1bt8qmTZui9S4M/z6KTx9//HFzJGoVK1YswilE3KliQrE/ZM+eXcqWLSsrVqwwR8jNEJSg1bydJkrjZIuaEmZKCK8DDFQtX748t4h74MYbjTrxft6/f7856hv4Xu/du1evqQcPHoz2EoBwBSWojUAVdM+ePbVzKda2FixYoD07MPju9OnT5pn+M378eK2lwDh/f8D2WyyRRASCGH9OKUZnWQzrI8LrlZkSsqtdu3bpaxc3dW4tcH0QtgcjEXDgwAFzJHKwxRhtLlBEiy3HGGY7YMAArV9Bi4noCk4eGZQgIMHdNwKQJ554QmbMmCG9e/eWTp06aSoJkeyoUaMiXAQaGfiasD0XQYm/omhkPTp37hzumTqIbN9//3157LHHzJGoV7FiRZ0P4Y86FgpsdsyUoNAVX7O/bjQocOGiiGCkaNGi5gghWEdtiS+2BiO4efPNNzXZMH36dG1MhwGAQ4cO1UTDtGnTfBb8RNQjgxIUG6EHP5ZJMHcAF+dgSPWgpmPixIl+nUiK7bn4hmGNzR/1JMGwhIPJvLgLDQtOrF26dJFXXnnFHPEP1K8kS5aMSzikr1EUu9opU4KOySlTpjSPyM22bNmigXXevHnNkcjDMsXJkydl9OjRepNds2ZNad++vV6/UI/nTZ8n/Bm0fli0aJFeJ2vXri3NmjWTgQMH6tR6X9+sV69eXVauXGkeeQcZEEwiRoIB16h7t+DjOo65atjJiWxVdHjkFX3Hjh36gYKje1u444eB3R6rV6/WFw4uxKGxbt2UY/u3ybIlS2XT7mMSZI57CztM8O+j+NTf8KJD29+2bdtKpkyZzNE7cIf31FNP6X7yDz/80Bz1H1yIUqdOrW3uibB8iDsiLInYAS4MmTNnNo/IrRA8HD16VDO/vrrpxNJgv379pFChQtpsEqNC/vnnH70AN2nSROvx0Igzol1T//zzT6lcubKuImBK/ezZs3UFoXv37lKiRAl56aWXfNoWAstZuB5HBoIoZEJwU//gUilu+EeMGKEB4YPXt2C3rl2UvVvXyrKV62TPgZNyPci3yzyP/Iljfgt+UPPnz9f0ajCk1lBfgsBk0KBBoS6jnN04WRoUzC1t+vwqJ65fkUVj35cc+ZrK6mPenyjxNSEoCe2bFtWQNcIPDi82BChIfSHy3Ldvn/6w0Q45YcKE5tn+g6AIRYLr1q0zR8jN8P7AUt6979tAdvz4ccmWLZt5RG6FIBoXR19tEkDNIwIH3CiGljnEMsbbb78tr732mjkSNgROaH+PayBuzEOCzN+4ceO0FhGFpL6ADt6RDXIQoGFZFw03sdpxL2yYQLA2Z84cLY940PYpH0i+UuWl/ec/y5hPu0iubGklXaFa8ttGH/ZP8Vzcw+QJRqw0adJYceLEsTzRoNWnTx/LE2Vanrtx68aNG+ZZIQg6aU38uKNVs2EXa/a201aQOXz1yBqre+OiVr2e31u3bpuDETR48GDLExRZnh+6OULgeaPopOTSpUubI+Rmffv2tUqWLGmdOnXKHAlsnhO81bNnT/OI3MpzJ6+v2wkTJpgjkfPxxx9bsWPHvjvFPayPuHHjWiNHjjR/MnRr16610qVLF+LfEdJHnTp1rOvXr5s/7b1NmzZZqVKlsjxBjjkScefOnbM8QZpeQ3PmzGm1b9/eGjhwoOUJRKyzZ8+aZ93v9rWz1i/9e1idP59kHbvw/+v+rXM7rE/aVrVixUxsvfTJJOvKzVvmM957ZFBy/vx5q0WLFvd9g/EDTpIkidWuXbtQvtHXrKUfP2OlzlnUmrHlhDl2x745XfXvKNy8l3XTy6hkwIABVuLEic0julfnzp2tHDlyWLdvexnxkWMMGzbM8tztWJ67IXMksFWqVMkaMmSIeURudfHiRStPnjzWmjVrzBHv4UYtU6ZM912/HvWBa9uZM2fM3xCyl19+OcQ/G9oHAoDJkyebP+293bt3W9myZbOWLVtmjkQcrg3jxo176OuLHz++Vbx4cQ18HnR0w1ir0wejrBshxBxBJ5ZbdeLHtWIlK25N2HnOHPXeI5dvUASDilws0SBVhWpobDVEvxKsyyGF9WCR67kdC6T70LmSpUJ3KZ/n/uZh2cr3lLGDPpfPe3aSWDG92+qFNTEUdNLDsISD1KJdUvYUdXLnzq3vU7xf7ADLN0hPk7uhEBNLDL44x6N1RES7XKNcAUsYocFyEHZ/RoTnWqtL/JGt78JGE9R2YgOKt1B68dxzz2n7CNRGYmkL9We4jmNnT9OmTR8qcj286j/58Z1WUqLpCDn1wOD7WGkKSefWseTW+bUybGbk62fCVUWEwARbgMeOHas/LOxnxl5m/M+hyvjB9bIV08fIukMXpEarWpLs/5t17kiUUVp06iG1i2cRb0IS/HB99YJ1IgYlFCw4KLHLFnHWlBAEn+PD234hLOj6HVH497H7JzS4cHsT6KPmEO/HyPBFUAL4e1Cc+91338mUKVO0nf/IkSMlY8aMOpEYM4fu7VOSJFNmSRnXE7DduOH5BpmDdyWUVDnvXM0XHol8C4JQgxIU0+ALxuRZXOQAxazY3YFsCbIn2GmCFw8+/u+aLF/wp1y9nU3KPpZKjm9bLTPnzZCpkyfK75OmyIK1OyUym4fxgkEnV1/3J8Hfia20qJrGPB0UjKIyuXTp0tKnTx99IUY0ysXXiu57yDJhOzV+4CiAxW4lVIDjxeDtTJ3Q4PsS/D0id8NOFmxJRMFdoMNJHucZ9iih4POXL14LDxZyhtf917T7nTlzxvwuYpCJiOx5GbuREJREdJcQICDCziD0FQu+7uDvQtIBNwMYbItiYFxDcM7AzyFYnurdZPnWXbLq106S+v+bcO+4fUpWTUEAk0Q6V4j8HLoQgxL8QLDnGs3C0IckpOgOW4BRnYvmYGnTpjVHYY9s/QdRZFa5se9fmbF8j2TMml9Kli4rhXMklykfdpImb/wqJ7382SA7g+UjX1/Mv/76aw2ykPlBNTX+fmynRIUytoohqBgyZMh9P6hHwZ+tX7++DpRC5IltbvjeYksX9sojTYaMky8nPyJDgu8RXmzkbngdYGZGdDVBigj0dMDJEe9tcje8bnF98cU53tu2Eff27ngQbi69gSArsoEWAnfcaHjz90yaNEn7s3Tr1k1byocE2VW8B3PmzHn/duxYcSVTzlySKoR/9tKuJfLp8iBJWbiqtCnv3ffmXiEGJVgzw3wbLJGgdXlI21sR9SHNg4tq+vTpzVGPU/tkj2aLj8mfU5dJjUaNpchj2T0/yCySr8QT0vutJrL4mxely1dT5Hb4r+934QWLplAIGHwBkesHH3yg3e3CCg6QWkaAhh4kj8qYIHBBgxus1aHDamgQQGCfO7ImkU3HBUMEjReTrzNJZE+4A/LVdsSotH37ds1O8nVLwed4X5wTUQeJvy8i8Hz0MwlNyZIlvZrPlCdPnkgvSeHag6DEm/IF3CQjqEEyIbTaLQQr+DyWdsLzfbNuX5YxX30jJ+JnlJ4ffyb5U8U3n/FeiEEJli3QuAZjkrt27frQ3Qv+x1Dog+PoiHdvl9f/2ylZq70kmZLc/0+kKV5V2mYJkinDf5D1V71ruoIXrK8yJQgekB0JD7wgsI8dP9yw4Gt76623wkwB3gud9dB4JyJZmNAwKKF7oe8AshCBDidDdHPFe5vcDRdDnL98ceNZo0YNKVAgYksKuGBjHkxokKXo0KGDeRQ+OCfjz0Q0QHoQrkG4kfYmKEFHcsyvQ1fykJoUYqkL1yJsXgnfZOZLsnJID/l84RUZ+NtMeb1uXgkpEoioEIMSdHNr3bq1LFmyRGtL0HAG62jIJOAEh6UOBCVffvnlw22hU2eWrNrcNZ9UyJ/p4WLW2GmkQGGRy3vnyp/rvKsuQZSKIhxfRNJoMRyRFz9eEFiXu7cI6EGoXEYxcEQgY4KGQZGBrwlZrlSpUoXZYZfcA5kSNIYKdAhK8LplUEK4gOOi64sMH4Ib3FiH93yIgAO7ZMJavoFXX31VlzrCA/8/2OWCOXGRhRUKFK570zi0UaNGeq1DfSSuNbim4wO/RxNQdJ/Fdb9WrVqPDJ6s21dk0bD+8tTATfLh95Okfa38kjBy8dZdIQYlgG8gBvTgZIHubth5g26l2EaE9rlYnwq5Uj6tZC+FX9NIsjBHxFyRbUe8q6XAmh6+ad4WMd0L/08RheLfsHa3IMCI6O4XrPujOjsy8GJFoBZW6pHcBWvqdglKUETPmhJCPRxKAh6VkQ4v1O5hxsujLrT4d/v27SuVKlUyR0KHbAom6j4qeAEshWA4qy+gvhPLN97UyiCBgFIFBGhz586VyZMn63Uc9Y4oNMfE4KefflqDqLBdkv++f08Gr04mM/+bK80rmOTD7SC5ejPy2X4sGfjcmDcrWp4v0hq1MaQGXuetkXWxqSiZ9cnqMDrChsETFFixYsWypk+fbo545/bt2+Hu9HfvhycY0654oalXr16If+5RHxMnTjR/g3eOHz9uFStWzPr888/NEXK72bNnazfmG2F1X45meC+lTZvWeu+998wRcrOgoCBtTlaxYkVzxDcGDRpkeYId7dp673k3Xrx4lifIsEaNGmWeGX6eYFo7aCdMmFAbkAX/nbg+JU+e3GrdurV16dIl8+zIw9eYP39+88j/bt+6bC3+rr1V5sXvrWMP9E09vnq01Wpc5BvePSok8krpqk0kS5JYMnvzHv0J3efmadm2QSRJ7qryTAHvVqCQoUHUG9n0HpZiwlqGCQ3W9cLibY8QfD2RgWgXyzcoxCICLHViUCMyEYEKy8O4+ws580pugzt1LE9s2LBBXxe+gl5b+DuR9X/33Xd1dynqJ1BjgSGm2HAQUQULFtQJwRjE99lnn+lOS9QTYsoudnH+8MMPWg7hK/j6Q5pJ4x+XZOkvA2RB7Lryzy+vSLoHkpr71h6QYr6YR2eCE9+6fMh6p0YeK1+ZPtbhK+aYcXrZEEtixrXaDltsRaYROnr2d+jQQdsIRwYiZ3wbIvJRtGhRbYUcmo4dO4b458L6wN3svHnzzN/gnZUrV2rUH9nvCTnHjh07NLP3yy+/mCOBZ8mSJTo2Yu7cueYIud2vv/6qmQfPRdgcIUAm3BP8mEf+dM1a+HkTK0HCx6xKlSvr7Jy7HyULWjFjIktU0ppy6Lx5vveiJFMiCTNJ359/lvo5NkiPvl/J3HXbZf+e7TLzt8HS9f0Z0r7/OPmoVUWvOroGwzohuu55m5UI9uSTT5rfhR9qasIqyMO6XEQLTXFnENkW2+heWK5cuXCsCZJbYCcdtiFi+36gYqaEHoQGnZ7rkxZl0h1oS4Gt8/je+NvOucOkxQd/ytUru2Txv/9qbendj9Wb5Tb6e+TLKNkSRr4mLMquXvEylZcBv4yXj14sJgf/myVTp8+S43EKS/9R42Vwn8aSJpJF9ujdj14qkQ1Knn322RD7sIQFAVFYzcmwfBLRsduoePa20U8wbOfCVm6iYAhKUIwXyMs3J0+eZFBC90FPD7x2161b55NWCU6AES8oVg1pO29Uy16xjazdfVTfq6F+/DdGCiaPfCuKKL2ljh03seQoXlVe6vC6dOr8urR6prJkT5NYYvlg6xD2XOMOEJFaZFSvXl23SoUHMhAdO3bUve9hwdZGdMQN704C7JZBdXZkMhyor8EbODyV4+Qe6CGUK1cuOXbsWLj75vgbBqZhbZ5diCkYzoWoz8DojwcHvroR6hj/+usvzaaj95C/xYmfWHfHhfmRPKnn2h75i7ut8/xo/f7ee++ZR97BMgzm+DRv3jzMLWP4HAqh0Jsl5GZx93vmmWdk+PDhjyxywgUDhVf3dcX1AiY2o91/4cKFzRGiOxD0YpaFtzM7ohp6IWHZkeheaIeOwk6M53A7tL9Ys2aNV5l9u7F1UIL931hjQ1fWyMDuhO+//14rpZE5QX1HcPSH36PuBN1tMfsmvM2dEOkjiEGdR4sWLXQI371RJYb+9e7dW+bPny9FihQxf8o7aIiDfwd/pzdNdcjZkIVAp19fjTLwNTRkZFBCD0IDNfTLQj8Qt8NOHuysfP75580R54qBalfze9tBgRzuAhE9YhJveDIYj4JttYcOHbq7FQ0FqxhqFpnoFNuO8XfeO60VmREs84SVnQmvBQsW6IyiefPmSZkyZcxRojvQlA8ZtOnTp2sgH2jSpEmj2yqjb6sjBSqMAHn77be14BU3dm5VrVo1vQ5hwq/T2TpTguUK1G5gj7ivUnxYbsGLH8EOPvD7yKbLkDXBWmDw34kPZEt8EZAgpkRAhosNAxIKCdag8VrDnVagQYEcXsMI0Ike1LBhQ239juVpb3pKOQFuNtHdFvWMbmDroAQwIA8ZEszicaPly5fL1KlTdc3x119/ZVEYhQhLONu2bTOPAgeWL7HkyPbyFBLsSMScGWT5AnX5MSqhOB2bIEqXLq03s25g+6AEUTRm9OAH54tZOHaCWTfoHoi0Hupi8OatWbOmDgNEDQFRMGxTR9FgoMGyDYMSd8CSOIa/4Tz9qA8sdyODhgwfzu3I8mFDgI2rDbyCpXnsqkSWxJedYQOZ7YMSQM8SLIdgmFJk+5bYCTIkKIBCS2PccWLiMfawIzBp3LixZk4CdRso+ReKoNFKO9AsXrxYX7OY5krOhnMzMruYRlu2bFldbg7t44033ri7XIO6Pozcx07LyG5qsBMEcRigh12maMjpGp7I0xF+//13K2nSpJbnzssccTZPsGFlz57deu2118yR/9u8ebNVqVIlK378+JbnDW6tXbvW8pwQzGfJjTwXAx1EhtdNoMDXgrEIH374oTlCbnD58mWrX79+VrJkyayYMWMi9XHfB0YOLFiwwDz7jjNnzlh58uSx6tata1258sDsEgfCqBAMqMyQIYO1Z88ec9QdHJEpAezAQW+Q9u3ba/rPybBDqHXr1prOe/PNN83R/ytQoIDMmTNH/vjjD8mZM6felSBzgrobLPmQ+2B7JbKJuFMNFDt27NC7YTfvqnAjbBxA1gNtDB577LH7liXQQO/TTz99aJcYuruibQMyJSh6dTos23z11Vc6RDCy40dsxwQnjnDo0CErd+7cVo0aNQLqjtDXPG9Oy/Pmtf766y9zJGz79++3KlSooHchhQsXttatW2c+Q25x9OhRq0iRItbHH39sjkS/iRMn6oh3ZPbIPYKCgqwxY8ZYKVOm1HNSxowZ72ZJMMw0LN98841mV1asWGGOOI8nULfy589veQIzc8RdHJMpARTMocEZCvq+/vprc9RZlixZooVf77zzTrjXGRFpz507V6ZMmaIzJdCKHlvtkElh5sQdkidPrpmS//77zxyJfujkikJ1dDUm58NAOXS5xvkHrRwwQwxt5IPHC6BPTffu3fX3oUFDyqeeekratGkje/bsMUedAzuMkNVGHQ1qAl3JBCeOgjHtCRMmtIYOHWqOOAPGeHsuLJbnRev1uur169f1zrRatWpac4JR2EuXLjWfJSdr3bq1rssHwpo81szx9dSqVcscIae6efOmNXLkSMtzc6SZMfzcDx48qMdPnDhhxYgRQ+udNm3aZP5E2M6dO2flzZvXKleunP4dToEMSdeuXfX7MX/+fHPUfRyVKQnWpEkT7V/Sp08fmTx5sjlqb2gOh3oZZDrQLA13mN7A1kvUnGCi8IQJE3Q7Maq7UY8zbdo0Zk4cDOMMUI+E4XzRzROUaKYEIxzImfA689wgamYEIzWwKxCZkR9//FF3XCFDgnkuOCdhphh66YQH6qPGjx+vfz+yCqdOnTKfsa8bN27I559/LmPGjJFx48ZJlSpVzGdcyAQnjoOakldeecVKlSqVNXfuXHPUnlATglqZokWLWkeOHDFHfQN3zVif9VwcrCRJklglS5a0/feLQoa7r+TJk1tLliwxR6IPdoNhZwHrSZzHc4G1RowYodkM1L55bqZ0BwmytA/66KOPLM9Nke7IiQhk2vB6Rra3efPmmmWwK/y/fPLJJ/q9wq947GaODUrg9OnTVqNGjaxEiRJZY8eONUftZdu2bVbp0qV1++/ChQvNUd9DGnTKlClaJIwLV4MGDaxZs2a5YvudW3juKHULLrbPR7e9e/fqUiS3qjsDggIUU48fP94qUaKElTZtWuvFF1+0Nm7caJ7xMPyZt99+2zp58qQ5EnF4LePfqlevns9v2Pzh4sWLGojgnNu5c2cN6NzO0UEJIDDBDztFihTWZ599ZquIGncCOXLk0F4jO3fuNEej1qVLl6x///3Xeuqpp/SNgnXbv//+2/XRu1MUKFAgIPqCDBs2zCpfvryjagLcChdS1O+hPg09Rjp16qQZsEcFnDinIFCODOzkmTNnjvY8qVy5snX+/HnzmcCHGz5kkXCjgGsT/l/IBUEJ4M3RrVs3K0GCBFaPHj00UAlkeLFiuyTS2whIoqN5Dk4YCEYQlCA4QZCCYAVBC9kXmu09++yz5lH0efrpp61WrVox2LUp3NyhSHXSpElWoUKFrDRp0lhNmzYNd7Gqr6FBJJaLkFHGeSqQ4XuHm8yGDRtqlufzzz+31c1yVHNFUAK40E+YMMHKlCmTVbZs2YBYVw8J7hxeeuklvePo3r17tAdQ+L5hGQfLOQhOsLwzdepU3uHaFILdXLlymUfRA3fWqF/69NNPzRGyE7z3v/vuO71hQgYamZFVq1ZF61IcLupY6saFPl26dNZbb70VsEvPf/zxh/XYY49pEDVv3jxzlIK5JigJhjcPikbxZhoyZIgGAYEQpeINNGPGDCtbtmwaPaNQLNCi53/++UcLYXFBQWHsypUrA/aNTyHbsWOHZgzPnj1rjvjfmjVrdGsoapjIPrAVd/r06Va+fPn0BgUBwNatW81nAwMCpl69eunIkapVq1pbtmwJscDW33AuRx1VmzZtdLkGNTDMOofMdUEJYI4C1vDwxipVqpQ1ePDgaFuLxBtm2rRpmonAxR4v2rCKw6IbquRxMcEJCeu4SMNjmYcFWvaAYkT0Khk3bpw54n8//vij9qXYtWuXOUKBDBf6H374QTuMIguBJUD0NgrU9zy+XtTj4cYJ5/i2bdvq8k50OXDggNW3b1/NUKKjNoqBUeBKIXNlUBIMVd9YjsC2ssyZM2tq+8KFC35Z58bFHc3QqlSpYsWJE0fXQpGJsBMsgaG4Dd8/nAC2b98eEHclFDqcDKtXr671HP6AO8R7M374PdL9qEEItEwg3S84e4tzI7JrOFf6q+DeF1A4+tVXX2lWHK3psRsI7RX8scyEwAg1Nygqx80mdoC2bNlSry8Uthj4z52OJe509epV+ffff7WR2KRJk+6O/kcrYwyF8lxwzTN9Y+PGjdrQbfbs2TocDY2Fnn/+ealXr56kTZvWPMs+PCcumTlzpowcOVK/j3Xr1hXPBU88Fz5tikSBxRMIyKuvviqeO0nZunWrtrOOSkeOHJHz589L/vz59THeb40aNZJs2bLJsGHD9BgFFrynMbwTjbxwvqpfv76eoypXriyei7t5ln3s3r1bR2qMHTtWDhw4oOdcNO3DOR6vQ19Cc8KpU6fK33//re8xzw2utGjRQp577jkpXbq0xIgRwzyTQqWhCSnUl+AuDi3q8a1BhN2kSRNr9OjRXi/vICrHljVsS0Y2BH8vPrDeiUyJk6AJGwZJoU0y/v/s2DfADb7++mt9bftjVxfW0dEcC3eOgMJtpLFRPE2BBZkr/FyCB+Qhi+u5oJvP2h8yJygyxbZ4/P+hrgk9Vd577z1r9erV5lkRg+8ZvkfffvutZpLwd+LvRmbkyy+/jNbiX7tyfaYkJLi7Qxv2ZcuW6dAnRNoHDx7UTAaG2yG6xu/R6h1juDF6+/r16xol404Qd4b79u3TP3P48GFJmjSp5MyZUwePFSpUSO888KsTXbp0SQf/ob00xm+j5f+LL76od1nx4sUzz6LotHDhQh0tgJ8TMlpRCe8JZM+SJEkio0aNkpMnT0q5cuV0OFvw68FzM6DvObTBJ/+7cOGC3t3j54NhprVq1ZKXXnpJqlWrZp7hLDdu3NBzuycAk23btun53RM86/EcOXLo6A1kzHHeDj7HoyU+XsvIIuFXjP1A1mX//v16zsc1Aed3fOD7hkyMr7PsbsGgJAxIveGFig8EHZ5oWj/Wrl2rL+Jz587pByY7Jk6cWCex4iN9+vRStGhRTdeVLFlSp7MiTY7ljKhOlwcKzx2Cpn6xVIBlggoVKmi6Pnfu3OYZFF0QOGJ+yHfffac/n6jWrl07nXfiuSOVVKlSacCKpUt8Hfga/vzzT5k4caJO+Sb/wVIelhkwmRfnMwQjmEGDGyg3nKdw6bt58+bdczy+Bzi3Yx7Ppk2bNIDGDSbO8XheihQp9PyeMmVKPY+VKFFCihcvrkuTCFxwfscHl2gih0EJRSncVWA99+eff9YL0bPPPqs1JwhSmDmJPshW4OPrr782R6IOghD8zHHCxokcmUWczDFU7cyZMzJ69GitM+HJ3D9wEzVv3jwZPny4rFu3Tu/sEZxWrVrVPIMo+jAoIb+4ePGi3oG8+eabmjJFFumLL77QjBL538cff6wFyihOjmpYAkVaG2LFiqXFkrjzxN3477//rsuZdiygtBtkRlBk379/f81eorge2Svc9XOpgQIFzwTkF6gpQF0J6kwGDRqk67CPP/64rl0vXrxYl8fIf1BTsnnzZgkKCjJHog6WA4J3OWBJFAEJgpC+fftKgwYNGJBEMWSjUCOH5ZlXXnlFsmfPrrv/sGRWuHBhBiQUUHg2IL/CCRCFr9OmTdNt2Cgya9iwoX5geYf8AwXbKOL777//zJGoVbt2bfO7O7DFFLUMXLKJOggAkYlCRuSZZ56RNGnSaDCCrbFod0AUiBiUULRAwRju1ufOnSvffPON7sZAf5iWLVvKypUrtfCMog6Cwzx58uhFyx+CgxIEIfg9dnqgOJx8D4WZeF+hVqRt27ZaoIllOtTwoPAeRZlEgYpBCUUrFD/irhmFd7hQYYsdmhphKzGWdVjyFDWCg5K//vpLaw2iGpYJsOMH9QvYccMMie8hM/Lrr79qVgQf2No6ffp0DTzLli1rnkUU2BiUUEBA5gQnUnRBRM0JCvGQSXnhhRd0ex4zJ76FOg70BUGGCj11ohoCEuz2wR08akzId1BEjt4z2NGGzAh+tvg+oyNrxYoVmRkhW2FQQgEFJ9SmTZvKqlWr5Pvvv9emWkhDY1kHKWjcDZJvYFsuvp/oJxPVsITw008/aVMq8g387LAkg232qMkKznyhXgu724jsiEEJBSR0U2zWrJlmTkaMGKFFsOiS2Lx5c91i6o9dI06HoAT8EZRg+2/GjBnNI4oM7FRbsmSJFCtWTFq3bq29gJAZQb8XdOhFATORXbFPCdkCOiviLjC4FTZ6W6AhF4ZroQW03WAEQSAsSWEnFEYmfP75567ZmoulJHRZthtkRrCNF8EHgnQUhuPnh0wiGxGSUzAoIdvBtsY2bdro0g6CEyzzYLujnSDVvnPnTvOI/Om1117TuiU7FdtiVgsyhygEL1WqlHZILliwoPkskXMwKCFbwhCx4PHqmFeBEzZ28ZQvX94Wczvy5s2rO1Jq1KhhjpA/fPbZZ7q769tvvw34oATzozCbBtlB9JNB80FkB1EAjs64RE7EoIRsCy9dnLixdRh3v5jIjJQ2ZnqkS5fOPCswIVOCeSNoIEb+g6AVvToCOVOC1zWKujt16qTZNGRGBg8erJkRbKEncjIWupJt4aKCoj4EItitgwmnGIOPNtodO3aUpUuXcisx2QamJmPnDIYTok8P5gWhhgRFrShKZkBCbsCghBwBu3Xat2+vJ3UMHUP2BGl6bC/GSHKiQIXmdaiTQsEqXq8ITtD0DNt9UTNF5CYMSshR0IQNg8eQJRkwYIAWwxYqVEhT4WxfT4EETc+wlRdNA7HVPVWqVNp9dc6cOVKmTBk2PSNXYlBCjoS5Kh06dNA7TgwgQ6EgBpOhGHb79u3mWUT+h8wIpvYiC/L000/rVl9k9xCQ1K1b1zyLyJ0YlJCjoR8Ful0uWrRI+vXrpwEJul1269ZN29ezCRv5CzIj2NqLYOS5557Tmqg///xTlxzRb4cDCokYlJBLIBWOzMk///yju3OwvIMOseiI6Y+OpuRewTUj2LaOjqswadIkbQaIIm0i+j8GJeQq6F6K9XsMMOvTp8/dQWZdunSRXbt2cbYO+cyVK1fudh/GMg12hiEQwZIi6p7QWZaI7seghFwJbbmxbRjtugcOHKi7dapWraq9Q9CMje17yFvBNSNoAY+GZ1immTBhgmZLmBkhChuDEnI1NFnDuPcVK1bIO++8o2v8GPeO3TrYucPMCYUXdnZt2bJFAw/UMe3evftuzUiDBg2YGSEKBwYlRB5o292uXTsthMVwOmRQsC2za9eusnr1ar37JQpJcGakZcuW8sQTT2hDP4w/QHF1lSpVzLOIKDwYlBDdA7t10LIeHWLR5wSDz8qVK6fLOpi38yinT59mAOMiCGJRk4StvFj2Q80IMiPoyJokSRLzLCIKLwYlRKHAnS+6wWKIGy44GKLXo0cPzZyEtqxz5swZDWowk4ecKXg3DWpGHn/8cUmRIoX2wsFrBFt7ich7DEqIwoDMCZZwMCDtiy++kNGjR2s7cGROzp07Z571f5i7M27cON12TM6zfv16zYxgN82aNWt0UjXqRlq0aMEOrEQ+wKCE6BGweyJRokTaDRaFjH379tULEgamYVvxunXr7mZO4sSJI2XLltUdPdgOSvZ38+ZNmT9/vrz00ktSo0YNfS18//33+nNHzUj8+PHNM4koshiUEEUA5pP07NlT55Ng/D2yIug5gSLZs2fP6nOQSTlw4IA0btxYzp8/r8fIfrAtHPOS8PNFZgRBCIbkoSX8Cy+8oAEoEfkWgxKiCELmBMEJUvbImGB5BxevzJkzy9tvvy3p06fX56EZW/fu3VlfYjP4eaHj78svvyx16tTRLNjQoUO1ZgSZEraDJ4o6DEqIIiFlypTSu3dvmTlzpgwbNkxrDPA4duzY+nncWWM3BgU+ZEYQjCDDheGN27Zt0xqiKVOm6NIdglEiiloMSogiCRerjBkzapofg/7QXjx40B9+z/k6ge3q1auaBWnVqpVu7UU7+CFDhuhkaWRKkidPbp5JRFGNQQlRJKGTJ+pLcAHDDJ0H+5lgOiy2CZ84ccIcoUCAzAjGC6A+BIPy9u3bp31p0AgN85GYGSHyPwYlRJGALaIIRtAFFnfYqCfJkiXLQx/79++XqVOnmj9F0QlBJOp9sCRTu3ZtbQc/YsQI3faN9vBYkiOi6BHDc7fAyWNEXsBbBzturl+/bo6ELW7cuFogC3ny5NFeJyiEJf/Bdu1Dhw7J5cuXpUSJEtKhQwfdLRX8cyGi6MWghCgaMCiJHuXLl9egBLtpnnrqKS7REAUYLt8Qkaug5wgDEqLAxKCEiIiIAgKDEiIiIgoIDEqIiIgoIDAoISIiooDAoISIiIgCAoMSIiIiCggMSoiIiCggMCghIiKigMCghIiIiAICgxIiIiIKCAxKiIiIKCAwKCGicLt27Zrcvn3bPCIi8i0GJUQULrdu3ZKffvpJ9u/fb44QEfkWgxIiCpegoCA5fPgwMyVEFGUYlBBRuFy9elX27t1rHhER+R6DEiIKFwQk+/btM4+IiHyPQQkRPdLly5dl2LBhunxDRBRVGJQQUZgQkHz00UcyatQoc4SIKGowKCGiEN24cUPGjRsnLVu2lEmTJollWXL06FGpU6eOFCxY8O5HvXr15PTp0+ZPERF5j0EJEYUoduzYUrNmTfn22281OMmSJYukTZtWfv75Z5k9e/bdjxEjRkjy5MnNnyIi8h6DEiIKUcyYMSVNmjSSKVMmSZ8+vQYpsWLFknTp0umx4I+MGTPqcSKiyGJQQkRERAGBQQkREREFBAYlREREFBAYlBAREVFAYFBCREREAYFBCRFFytq1a7WxGgf1EVFkMSghoki5du2anD171jwiIvIegxIieiT0LEEvEnR1xceDkiRJIjFixDCPiIi8w6CEiB4pWbJkki1bNjl48KAcOnTIHL3jyJEjkjp1avOIiMh7DEqI6JESJEigM27Q1XXWrFkSFBSkx69evSp///23zsBhpoSIIotBCRE9EgKOFi1aSLNmzWTMmDH6sW7dOp2JU6ZMGcmRI4d5JhGR9xiUEFG4YOjeoEGDZPz48XLhwgVZuHChFChQQFq3bs3ZN0TkEwxKiCjcEJhUqlRJXn/9df0oX768xIkTx3yWiChyGJQQERFRQGBQQkRERAGBQQkREREFBAYlREREFBAYlBAREVFAYFBCREREAYFBCREREQUEBiVEREQUEBiUEBERUUBgUEJEREQBgUEJEbnKrVu3zO+IKNAwKCEiV5k8ebJ88803cvnyZXOEiAIFgxIiL1mWJWfOnJEDBw6E6+PkyZPmT1J0uX37tgQFBcknn3wiZcuWlYkTJ8rx48f1Z0lE0S+G583IdyORF/DWQbAxbNgwmTZtmty8edN85mEY7d+/f39p3LixPs6TJ4+8+uqr0r17d31M/oGpxkWLFtXv/ZgxY2T48OGSL18+efHFF6VNmzaSOHFi80wiig7MlBB5KUaMGJItWzYZMGCADB48WJIkSSKHDx+W7du3P/SRLl06qV69uvmTFJ1ix44txYoVky+//FK2bdumASICRhz7888/5ezZs8ycEEUTBiVEkYTgpHLlyrJ06VIZOHCgBiAxY/7/rZU+fXoZNGiQJE+e3ByhQJE5c2YZNWqUzJgxQ+rXry+vvPKK1KlTR4PMixcvmmcRkb8wKCGKJNxV4wL21VdfSa9eveTSpUt377QTJEgg48aNk4IFC+pjCjxx4sSRMmXK6M9v48aNkj17dundu7cu6yBzcuXKFWZOiPyEQQlRJOzatUv69esnpUuXlqFDh8obb7wh33777d2LWPv27aVChQr6ewp8GTNm1FqTOXPmSKNGjfTnV7NmTa0bYuaEKOoxKCHyAnZwoJYEdQgff/yxNG3aVPbu3SvvvPOO7NmzR5+TO3du+fTTTyVevHj6mOwBNScoiMWS24YNG3SJp1OnTvrrH3/8YZ5FRFGBQQlROCH7gcwIgpACBQrITz/9JN26dZOtW7fK+++/b54l8u+//0quXLlk+vTpujRA9oX6oPHjx8uiRYvkueee0+CkUqVK8uOPP8q5c+fMs4jIVxiUEIUDtvtihwaWYhCUtGrVStasWaPBCAKQYNeuXZP169drTcJjjz1mjpKdoWgZP3cs4SxZskRrTjp27KiBKeqFkDUjIt9gUEIUCmRGdu/erVtHsW109OjR8tJLL8m6deukb9++kjRp0vt22QD6lmAHB56HXTnkHOg1kyNHDq05QTYMW7x79OghVatW1WOnT582zyQibzEoIQoBMiPvvvuuVKlSRTMjKHhECh+/z5kzp3nWw5Dux3NwASPnKleunC7fzZ07V2uH2rVrp3UoP//8s9y4ccM8i4giikEJkYHMyL59+3T3DJqiITWPHRirVq2SN998UzJkyPDIYCNZsmQsbHUJ1Avlz59fg5OFCxdKiRIldNkOgSza13OsAFHEMSgh8sBwNmRGatSooZmOrl276rZQ9K5ADQFRWEqVKiW//PKL/P3331KoUCFp2bKl1KpVSwtiUWdEROHDoIRcC5mRgwcPynfffadLMujsiaBk5cqV2gQNxx6sGSEKTdy4caV48eIyYsQIWb58udafvPXWW/LEE09osMKaE6JH4xmXXAnbOT/88EOpXbu29hvp0qWLzJ49W3dYoB8FUWQULlxYtxJjUCMCFSwDoo39Dz/8IFevXjXPIqIHMSghV8E6P2oA0PYd800ef/xxWb16tfTp00fbihP5CmqLypYtq5OIN23aJKlTp9bdOthejALZ8+fPm2cSUTAGJeQKJ06c0FoRrPOjLXzbtm1l3rx5esHAjhmiqISeNb///rtMnTpVRxI0aNBAnnnmGa1DYc0J0f8xKCFHw7ySkSNHSpEiRXSZBjsk0GcEgQmH5JE/IXOCzBxqTtAFOGHChLrVHEWyixcvZnBC5MGghBzpyJEj8sUXX+j2TDQ6w24InPixGyJlypTmWUTRI2vWrDpHZ8qUKVKyZEmpV6+ePP3009qEjTUn5GYMSshRbt++rQ2skBnp2bOnnvAxr+azzz6TokWLmmcRRT/s1sFuL+z6Wrt2rbarR/CM9vUIoInciEEJOcLhw4e1cBXr9diG+cILL+gMGqTKkSYnCmTYPjxjxgz9QLfYhg0bSt26dWXChAnMnJCrMCghW0NmBNt4cSLv3r27VKxYUdfrMa8G2RIiu0DmBFvUUfyK2Troo4PBj9hejEZ+RG4Qw/PCt8zviWwDmRE0pBoyZIhu88VuBkxuxQncDjDgD0W32A1E/oNi5yeffFIGDRoU8AMTb926Jf/8848G3VjOQRYQu8bwmkmUKJF5FpGzMCghW8GJGoEILirHjx/XkzRawqdPn15nkdhFkyZNZP/+/eaRs2FA3caNG3VbLGYDRbfnnntOs2p2meJ8/fp17XOCHWPYxo5Ow9jejuUddhwmp2FQQgEPL9GjR49qx1UUrKLpFNLcuLBwW689ZMmSRRvUdejQwRwhbwTPY8IoBGwl7ty5s1SqVEmSJk1qnkFkbwxKKKAhM4KpvdjKi8CkTZs20rp1a8mVK5etMiNuh4zWzZs3dWcURQ4KX9esWSMDBw7UQB0DADGrCW3sY8eObZ5FZE/M/VFAQgfWsWPHSu7cueXTTz/VotUlS5ZopgTt4BmQRN6VK1f8VkCJzBaG1FHkJUiQQAu6J02apB1iUV/yyiuv6HLOggUL5MKFC+aZRPbDTAkFFKyfY2rv6NGjtZgVuw9atGihBayxYsUyz6LIQgbqk08+0SLKAwcORHl9xY4dO3SHFGojMmbMaI6SLyC4XLZsmf4sUfyNeTso+kbmBDt6iOyEmRIKCGfOnNGeDMiMYHpv9uzZZenSpZoZKVasGAMSH8J9CAomP/roI81I7du3z3wm6iRPnlynL6MPB/kW+vBUq1ZNfvvtN92tg2Wyl19+WbNTq1atksuXL5tnEgU+BiUUrZBq/uabbzT1jF002JUyc+ZMbcGNuhHyvVmzZukOFNQmIGOyZcsW85mog103CDTRVp2iDrJRCPww/C9t2rQ6awfvqYkTJ2oWkijQMSihaIG7N5w40VIbuzKQ0l+xYoU2PUM/BooaWKrp1q2bnDt3Th+j+dyGDRv091EJw+iwUwp1Jbxzj1qoMUGWBJlHvKewWw0djqtWrapbsxmcUCBjUEJ+dfr0aa0ZQQOo119/Xce3z507VzMj2DZKUefYsWM6W2Xbtm3myJ2lnO3bt2twEtVQ64DsDP498o/gbrC4AcDyGTIpTZs21fcbgxMKRAxKyC9w0cNuAWxffO211zQzgjt0NEHDiZKiFsbiY1su2pc/CG35sYwT1YKDkp07d5oj5A+oOUHRK2pOsJUYW+sbN26sPw8UHhMFEgYlXkIx2cWLF+XUqVO6SwTdRZEm5d3H/VBIiR4jTzzxhO4IQDv4//77T+/c0qRJY55FUQkBIYqHUdyKraTvvfeeJE6cWPLmzaufR+bEH6/bDBkyaHt9BEEUPfAzx7ZhZEowBBCvBwQokydP5rnrHnjPIIA+e/asBnE4xyPLi6VHf2QV3YxbgsMBAQi23KGLIu40Vq9erfNW8K3DCxS/YkslPtD2GevnmGuCD3RdRGW822ZV4PuCO7O+fftqO3Vs60Vr7HTp0rHBk5998cUXWvyIuS9I56OwFQWQ6AODxnTInmDXRvXq1c2fiDpo8rV7927NmlH0Qvv/zZs3S5cuXfTclj9/ft1WXKZMGfMM9zh48KAsWrRIz+/r1q3T9wiCNJzbgz9wbg8+xyOgCz7H472E7x35BoOSECDgwFY6FOUhGMEHLqS4oOLuHlXtuNPEjgIEG0iP4g1+6dIl7RmAHSXIEODvwa9Yyy9ZsqRUqFBBU6Z40zt1Zwn+f7GGjfk06E2BtDFai7vxRBcIsGxz6NAhnTsTbOjQoVpcjNc3ltFQFFm8eHEZPHiweUbUQfCD5TvWlQQOXHynT58uP/zwg57rEJyiazJupnCD5TQ4VyPowM0l2g7gA0FJ6tSp9dyOj5QpU2rrfpzf8YHzP87vyJTgA1mT4PM7Mim4FuD8jg+c6xCsxI8f3/yLFBEMSu6Bfg1o3YwGRHjBIfrFCRtV64iM0UkRLzT8GlZH0eDUHz5wUcAyD07GSJ8vXLhQ3+jIoPTo0UOXNZwA/89oeIa+Inv27NFqf2RJcNFjA6fAgbc7un8icMTPCSdb3Bk+/fTTfhkQiBM4duFgFxACewocuKHCa+Htt9/WzAk6JyPLVrlyZfMMe0PwhWUrBOVYQkQGvGHDhhqE4XyMwCL4/I5zdFjDDvF3BZ/f8X1DfRyWxdDOAEv5CHBeffVV6dSpE4OTiEJQ4maegMH6999/rTZt2lieF6VVsmRJyxMsWOvXr7c8F1rzLN85duyY9fXXX1ueuxD99zxveOu3336zPHezUfLvRTXPG1C//tKlS1ueN6LVvHlza9WqVeazFGguXLigrzm83u/lCcQtTyBuHkWdc+fOWUWKFLF+//13c4QCjedibf3555+W52bMSpkypdW4cWPLc1NleS7C5hn2sn37dmv48OFW4cKFrSxZslieQMQaN25clP3/zJ8/33rppZesPHnyWGnSpLE8QZ61evVqyxPImGdQWFwdlHjuCvQEnSRJEqt8+fLW9OnTrRMnTvglOEAwtGbNGqt169b67xcqVMj68ccfzWcD361bt6wffvjBKlGihJU0aVLLc1dgbdy40fLcOZhnUCBC8JstWzZr8uTJ5sj/4Wca1fD6ePrpp/WkTYHt0qVL1ty5c60aNWroDRSCFFxw/fE68YXz589bXbp00dc7zlHvvfeetXXrVr+do/bv32/9/PPPVt68ea106dJZzz33nHXw4EHzWQqNK4OSo0ePWu+//76VIEECq2LFitYff/wRrVkKZGXwgsUbp379+hosBWrW5MyZM3pBK1q0qN5F4etdvny5+SwFOgTCCRMmtK5cuWKO+Bde12+88YaVIUMGKygoyBylQDdlyhSrXLlyVooUKaymTZtay5Yti7bX0KMgA7JkyRKrVKlS+jrr2rWrderUKfNZ/8MNKLLj+fLls9KnT2+NGTNGM4YUMlcFJTghTps2TS+omTNn1sxEdL5Y74XoHSnSsmXL6tfWr1+/gEqX4nuHqB9BHIIRpP//++8/26Z03WrgwIFWmTJlzKPogfddvHjxrL1795ojZAe4uGKZD5kTBCf16tWz5syZE1DBJQKl9u3ba+D97LPP6g1eoGR2kCV56623rESJElk1a9a0du7caT5D93JNUIKL56+//qrZiPz582saLxDhjY8LPt5U7dq108xEdEINwsyZM62CBQvq9w4nJKyPkj3VqlXL6tSpk3kUPZBZix07tjVr1ixzhOwGmRPc3GHpGTUnWLqNzhsU3DTt2rVL65UQMH366acBu8yEm88cOXJovQl+H6hZ8ejiiqDk8uXL1muvvWbFiRPH6tWrV8CnzpA1GTt2rK6FIjOxdu1a8xn/uXHjhjVy5EirSpUq+uZBoLRgwQI9TvaEAkZcRFALFJ0Q6CIo+fbbb80RsiOcRydOnKiBLmpOkJmYPXu2vs78DbUvuXPn1psn1L0EMgQhW7ZssZo1a6a1JgMGDOB59R6OD0pQrIVUGepHJkyYYI7aA1KPqVKlsnLlymUdOXLELxE17naQkn3sscf0e1ahQgVr06ZN5rNkZ3g9JU6cWO/OohvqE5Cx4V2iM+CcgYAAy3JY1sHS3KMutFj2iewNIrIhyNrEjBlTNy3YqU4Ju3Fwsxw3blytcWSN1R2ObjOP/eKe6F2b5KCHBsa120nRokW1wVWmTJm0+ZrnYoIg0nzWt7DXHt8j9KtA91W0n8aY+cWLF2tfCbI/NAREbxC8nqJbnTp1tLme56JijpCd1ahRQ5YsWSIjR47U/h+YcfXyyy/rOQuPQxIrViydCo7+UN7CCAv8Oy+++KKMHz9e/067QP8m9IH54IMPtLMyBpSi8abr3YlNnAmRM+ogArV+JLxQV4JsScaMGXXnkC/hThXpzpw5cyLa0eUiFmA5U4cOHTQDhrql6OYJdvU1zd4NzrR06VLt04FzCurQ0J8pJJ999plmY73ZyYPMN/5+7K6xM5yDhw4dqv8vPXv2tM2W66jiyEzJuXPnpHnz5tpKGIPf0JnQzlKkSKF3uRimhTkL69evN5/xHiJyz5tannrqKWnSpIlO6p01a5bOf7i3JTk5w7Vr13Q6LwbiBUIn1WLFiukwS2ToyHnKly+vXWFHjRqljzFWAxmNuXPn3pc5QTt2nNuQKYgInKuQWUA7fAyYtDPM02nXrp12E//pp5/0V1dnEE1w4ijvvvvu3ep+J0Wde/bs0aJTT2BinT171hyNGETlKEbD+i8Kf1GkhkwSC62cDTVJaNCHXQmBABkS9G3Aa5GcDXVq6JqNjqqoU0PmBDtlADUluAyhrgLZs/BAUzIU1jZq1MhRmTZcq/r376/n5eguRo9OjgpKcMHFrhW8YJ36Q0XVNpZaUCAVkTckgpi//vrLqlOnjm6ZQ6U8gjYWGrrD5s2brbRp02pvmUCAHRp4Lfbu3dscIafDsiF61AQvqwfv6AteOsZuw0ctHSO4xkgLdOA+fPiwOeocWMZCl28sbeI960aOCkqwdRZ1F88//7yj252PHz9eG/B88cUX5kjoEHSg4RG6G8aPH99q0KCBtWHDhoDtxkhRA3eq2BkRKBkxvC4RWEd3IzfyP7R/xw0RRlTgBhJdVxGUxIgRw2rRooV5VsjQNh7b2u1eJxgWZJaqV6+umURsn3cbxwQluPPCoKXixYs7voUvLiy4y8iePXuob05kRmbMmKHLM3gTIxjBXn5mRtzp888/1224gQRfE1LV0dl0i6IHzkMrVqzQpWgEywhKgj/Qkj2k7bFo4ohzmRuGOaJQGO0gunXr5rqldccEJd999502ogmU9HRUQyoUFxnMzLkX3uyY8FmpUiXNpmCZBlN70a+F3AtdN7H7JpBMmjTJihUrlnYDJffAsgu6VWfKlEn7i9wbkOAD5y1kd+914MAB3TmGuTtuCGJRXzJ48GCdvO6290cM/MfzQrC1Xbt2yRNPPKE7SYYOHSqxY8c2n3G26dOni+dNqnv1a9euLWvXrtU976hmR/V7nz599PuC6m5yN+yoeuONN6Rjx47mSPRbt26dlClTRneBPfPMM+YoORV2gKH30SeffKI7r8KC18Vvv/0mnqBFH+O8hp4mnptOyZ8/vx7zxsmTJ8UTFMmhQ4fk2LFjkiVLFsmYMaNkzZpVkiVLZp4VMdhB5gma5OjRo7J3715JmjSp/n3oB5QhQ4a7/w/eqFy5siRIkEAmT54s8eLFM0cdTkMTm3vzzTe1iM9tY6HRPh/dEz1vLMsTfFjJkyfXO4mFCxcyM0J3YTkT9URYzgskWC9H6t5zkTJHyMlwvtq+fbsuOT/qY9u2bXd3TqI3EzIG6OXhLWSQR48erQNPUceC+hVc/vCBAaMYp4HOsBHdrYmNB8hCopYRWb/gvxPvtwIFCuhO0MiUE2B3Gr7e4cOHmyPOZ/ugBEVTeFG56Yd2L6T2sJ0Ob4BFixaxZoQegq2WWJ/GGn6gQTHfq6++6qit++Q7eF28+OKLWhTr7XBS7FLEfJmQloru/cB59Pvvvzd/Kmw4zy5ZskSvPSH9Xfd+IGjxNjBBrSS2UCOY8rYNhN3YvnnaW2+9JWnTptX26G6Eds5oFJcoUSKpUKECl2roIWi2h5Sy527THAkcnpOtptFDa0VO7rZp0yb5448/pFGjRl4vr6AhWf/+/cUTSJgjIbtx44b06tVLl5geBY0I27RpI55AyRwJHZZeevfuLUFBQeZI+KEU4aOPPpLNmzfLsmXLzFFns3VQgnU8zDtALQkCE7fq0KGDbNu2TWbPnm2OEP0fajcQlKRKlcocCRzoJIy1eFwQiB40bdo0DVhfffVVr2ozEIig5g71LOFx9uxZ6dGjxyODZNS74JwbHghGUOuIwMIbqK+pWbOm/h1uYOugBC3RL1++LC+88IKrMwT58uWTAgUKyLBhwzjgjO6DEyJOnunTp5ckSZKYo4EjOChhpoQeZFmWzJw5U9q2bet1lm/+/Pk6kDUisHECfy40V69elUGDBplH4TdkyJBHZmtC06pVK1mwYIEW0jqdrYMSZAaKFCmiczTcDGlN7L5Zs2aNK160FH6488MH3ieBGLjjvXvixAlmSugh2CmDJQvsIvTW2LFjNbiJCDw/rEAGn8NrNqKwjOrtFGC8f9OkSSM//PCDOeJctg1KcAeIoKRv377miLu1bNlSTp8+ral6omBY8z5//nxAB+6ZM2fW4ZlE93r33Xe15ihlypTmSMR5e5OG901owcyRI0fM7yIGGZbwLiM9CFuMMbzw77//9jqwsYsIByX4YS1fvlyWLl3qVbToK/gacOeHfdx0Zwpn6dKldR8/UTBkSXASK1y4sDkSeLJnz669dYiC4aYTE4bRbyky/Tm8rTXEJO3QMoveBklx48aVOHHimEcREytWLHn22We1KHz//v3mqG/ge42C4iVLlsj27dujvQQgXEEJvsh58+Zp8yU0vkH0idQa1sg+/PBD2bFjh3mm/4wbN06b6KCxDN1Rt25drbMhCoaABHdoCFoDVY4cOSK87k/OhosksgrI8EVm2bFWrVrmd+GHfy9v3rzm0cOwlBI/fnzzKPzQpA0F596qWrWqvp/37dtnjkQOGsjhet6pUydZvHixZlRnzZol77zzjkydOlWDlWhhPQL2Y6PlL2bKoF05HgfDHvLdu3dbH3zwgV8H4OHfxQh/DPS69+txu2XLlmnTHvRuIYKffvrJypo1q3kUmDw3NjoVlSgYXree4CDSk3LRsA3XClzqwvuBcygatoUFvUdC+rNhfYwZM8b8ae9hQrInaDCPvHf8+HGrfv361pAhQx6aNo9hrZ9++qk2sIsOj8yUYInm/fff13bmD0atGzZs0O24M2bM8GtUdfDgQU1LIyUdmSjaW57vm3iCMZk0aZKue77yyiuaRcLWMxSbRlf6K126dPqBNBwR4HWaJ08e8ygwoR037v4uXbpkjpCb4fyK7DuyCmFlLMIjYcKEmgnA8kd4YHnl66+/1t1qYXn77bcjtDSELEezZs3MI+9Vr15drzGRgWs1Cmax4oH+L1hWCnbx4kXp0qWLfPXVV9qOPzo8MijBdsI9e/ZIzpw57/vB4oWDFBtePKVKlbrvf0zkthzcvEmOXzUPH3D16BY5cDKUT4YD0k7495H29Tf8u54oUtOCeJFhJgOCEfwQsXXtySeflJdeekm/Rn/DOii2zqHKmwjw3g30oASBNM4f3DlGgJs6bBPHdSW8wURY0MepaNGi5lHocIOLm280RXsUNK3E3xseuE4NHjzYJ/8v+P9A47bIQPCPTSJY0n2wTQA2S2AbNupmQru+Bl06LRtXLZUpf02T5eu2yLmrvr0Jf2RQgsFJWNvD0CwUwVy/fl2P4wfYpEkTvQB+/PHHDxTwnJcF7VpI5hRJpEKtF6VH34/k268/kTdeay9PFM8mRZ8e5HnGvUFMxAQHJaja9yf8v+P/FWtuONk/mB3C14RamzFjxmizH39XSaO+JkWKFNyBQ3fZIVOCrY7oXBkdgTwFHgQl2OGC3Sa+gNcXenwgK4DfPwjXMgzOQ2fsb7/9NlwDXfGc9957T7MqD96wB0OmB/8PuB6gj5QvoCgcha6R6euD7ffnzp3TzSr4vuA6Fdw/JVu2bLJw4UKZO3eu/lv3unp6v/zxXT9p3X2ALNt/QdKlTyKrpg6WmsVKS6ev/pCDp67qOlWkeS6kYfrvv/+s9OnT67AhrPvWrl3bev311605c+aEMUL6jPVLhcIPranFS5/b6vL5WGvXmRvmed7xvBB0vdHftRPjxo2zPC/Gh/6/Qvt46aWXLE/gYv501EOtzbPPPmt5omlzhNwOM2+mT59uHgUmT4CvM0RGjBhhjpCbYZgozmHjx483R3wD16vVq1dbn332mVW3bl2rZMmSVoMGDSxPIGJt2LBB58xEFM65eP3+9ttv1vPPP681H1WrVrW6d+9ueS74Pr9Gbdq0Sd8rGGzoLU8QYtWqVUuvURh0WLFiRatFixY6P84TDJpnPeDqaWvQy89Zz735q3Xi2r11nLetZaO6W3FjxbCqtv/aunA98jOsHhmUoOilR48eVpIkSe6brIjfo1Dm5MmT5pn3uhOUDPnvuLVx7Upr+fLl1vodB637y2m8h8I4FCP5kye6tOrUqXP3/z88H5juuHLlSvM3+EfHjh0tT4SrbxZyt7Nnz1oJEiQIyEF898JJElO+MVGV6OLFi1bu3LkD/nUbHXbu3KlT4TEM0FvYHDJr1qy7yYZ7r1n4u5FwePD6ce34Jqtm8dSWJM9iDVlyyBy949K2SVaCeJ6/J/dT1trTV8xR7z1y+QZLAhhmhKFIKHitV6+eLhF4/qw2csFAPLR6D0mypGmlULFS2ru/SO7MkViwuZ8nUPJ6OJO3sCwT0e22KBpCKsyfMJgPqThvm/SQc2C5Fe8T1BoFMnx9OKd425SKnAXnL2xjj8z2WafCshFKJbD84i0sV9WoUUP+/fdfbZePWkgUFOM4NpGgJhKbWO4VO0kaqV+lspR6vL4Uz5jcHL3jdpDpxhwnlsSPGfmNJ2EGJVjbQ/CBwAT/E8H7l7Gmhd9jrzaKPB9doKYZGQ3FIgt/Dy64OIn509q1ayO8OwBvLhQD+xOqzfFzY1BC2NGCQja8JgIZToY4KaJ+je3mCed4BCXJk99/8aM7TdQQmGD3qTdwTcL1AcMNUWuGYt0RI0ZoR2UEKXgfYtfNP//8o88LFitBWuk8cKKsnDJEymdPZI6CJfu2rJZbQbekSsknJHMi7xvdBQs1KEFWoGPHjjo74METBU50CEoaNmyoj+/94u9169pFWTJ5pHz65RD59tuvZMDbA+Wf9ZHrRocXLL4eb5rXRAYyJd5AtsSf0P0QLzwOOCPcPCAg8fd7xRsYKom7v+BCenIvnONx/mJjzIcFByWhrU6EBe09UJzbq1cv3d10LwQpjz/+uK6K4Pse2jX9Qbcv7ZDBQ36XdBXbyIf9X5HEcaIoU4KMAIYgIYL64osvQswQ4JuDSl1sUULlcki+69VStqeoLG927yRdurwhXduUlk+blJVWY3aIt11NcFeF7YP+3tnibbtify8zIUOCFxheuORuBw4c0OU8O5zcEZTg7o8ZPsI5HksU/r6hswMEC9j16U32E13Q0cH1p59+CrULO3oG4dqBjAmu8SG5ef6ALJg/TyZ81VcK5C4ol2t8LHvmfS8Vs/vmWhdiUIILPmbcYJ8ymoKFtLaHQAVNXNCY5uGx0vEl99NNpOvnw+TlJ3KaYyKJclSQT959Qca8XF4+Hr/Gq+UcvGBx5xeZNTVvYDBURJeMEBygJbE/4eeCfzcy8yLIGewWlDBTQhBd53g7QECCLJI39TZYzkX9FsaRhLZFGe3mMW8IWZOQ3Zazpy5K7DhxJUWeYvLa629Kon1zpd+3v8m+875poBpiUJIqVSptAob6kRdeeOGhu258Y4YNG6bPe/HFF/UieL8EUrZHX2laPJ3cn8yJJSWeeFLyBp2Rr375UYJueVdlghest2tq3kLGA930IgJ/pkqVKuaRfzAooWBYvsFr0NshYP6UO3dunb3BmhJCUILzl7/P8XaAay/eI95k4MuVKyeff/65ZkpC6teCwnjMuPvss8/02h6ymJI2V0GpVKmS1HqqiXTu/YG81bSQfNm7lTR65R2fNFILMSjBC+Lll1/WHTfjx4+XFStWaDUuMiM4hi6mKEobOHBgiBc/6/ZtCbod44GA5I4YqdMJcgdn/9skiy/fadgSUcHfMHSf8xcEZu3btw/3+jwCA9Tk+HM6K2pJ8D3BC84OFyKKOghOsRQS2tJqoMF7Gidb1kIRlg2QlY5s59IHYQUAo0E6d+4s1apV09IDdObu0aOHjkrx5rWH5RRMrMc18emnn9ZRLBUrVpRWrVrpxR9TfX0J72m8tx9sbBYeGAmDQA9fF5qj4ZqODwQi33zzjQYjqDmJWHY/puSo8oy8lT2GrJ34vXSb6oPhvFYoPBc4bfyyceNGy/MD08E9nh+oNlM7dOhQmE3Bxr33lJW/VEPrn33mwL1u77G6oWRX8ltjDkS8WQ14AiPLc9G31q1bZ474B/6f0eAJ/za+dWF9NGvWzK9DCgH7+9G4xxNQmiPkVmiChH41H3/8sTkS+DJlymQtWrTIPCK3wnnTcwG1OnXqZI5EHq5laBjmuYkO8XydKFEi/bznZtv8iUfDNbJ///6WJ4AK8e/03Bha2bJli1RPkQctXbpUv1ZPMGSORAyG7+3bt8+aP3++NgP95ZdftGcJmrF5gh3zrIddv3jcmv33POtYiE+5ZS35IKH+P8eqNtg6Y456K9SgxHunrbcqeX4ocdJYA5dfMMfucXqZVQ0/tOS1rDU3vOt2imm4nmjamjZtmjniX5j2iC54yZIle+hFWLBgQatnz57auMrfMPnRE6lbX375pTlCboUJnxkyZLBGjRpljgQ+vHZ93cWT7Ac3f61bt7bKly9vjkTO1q1brbx58953rg7pI0aMGFaNGjXCvDgHw/Thdu3ahfj3PPiB9yG6u/rCzz//rNcYf5vav6wVx/P/kuPJH63TDw3mv2ktfOdOUCIFB1hhz1d+tBCXbyInmeSu3UI+HfentC52/7AfuLB/oyyTmFKu/pNSIJTq3kdBShrrjpg/Ex2ef/558QREOtQItTVoQIOPKVOmiCfq1IF90bHHHmk9LKthWBS5G7YMIh2NYXd2gYJ5zr8hLN9gtyNmePliOW/48OHhWgryXA9l/vz5uhTzKKtXr9bdLOGB7beYhYbeK5GFWXOYteNvN65fE/wk8pXLKQ/v+zklGyejFCO+NHq9nni3T/X/oiAoiSW1aj8tp3ful0tXr2uoGOzW1eMyavAEiZ+juPTq+YLE8/Jfx7YlTDFEYzLUUUQHBB3oVIsXG3Yg4QPFwfjaEDBFB7z4UVOCnULkbjgBoijOTg2oUAvFoIQAu7FQP4GmXpGB4umff/453NcJ1IigVhI710KD4AWDWXETGF4oIkXPr8hCU7OSJUuaR/5T9une0qX3UPnutdIS977LmyVHFk6V7ltvSrbKz8sHzfJEOqiIgqBEJHOJBvJy2bgypE8HGfDtRFm5cb0s/OMHad2wicwKKiPT/p4lTxd+uPo3vBBJt2jRQrZt28a+BvdAlI9CK28qs8lZ8L5AUOLvzseRgaAE3SSJcOHFxT+yE8+RJYno1mK8b+bMmWMePQy72hAcRBQ2iURmyzvGMGDqd+nSpc0R/8lY/GlpVyOljPmip3R97zP5e8EK2bR+hfz1VR9p2mWoVH9toPw28hPJlzQKO7pGSqz4kq/as/Lh14OlTpE4smXNOtkblFZ6ff+3TB71kZTPlyrS/zC2KqMBDObg0J3oHRXklStXNkfIzeyYKeHyDQVDHw0E1FiuwLnNW0uWLDG/Cz/8e2GNTtm8ebNXy0rIZEem6Sd2yeD9jKal/hYjdnwpUO05efvjQdL7xRpydf9WWb1uq1zI+ISMmr1Apn31upTJkdonAUXUBCVGzDgJpUSVp3V7VKvnGkjBrInFuyqShxUvXlw7u3oTsToRAjS8gdH4hig4U8LlG7IjtFRAW4ply5ZFKrvgbU1KWMs93vbSQbDjbYCF9zIyLainjI6g5K4YsSTDYyWkMa7pno+WTetIzjS+HZwYpUFJVMKLFnvMsbc6MpG0U4wZM0bvNP3ZF4UCF4IS9NRB4G4XmKnl7Ywpch5MoMcg1MhMj/am6B81genTpzePHhY8UTeisKzu7cRu1LjgphPz5gJ96ndk2TYoAUwuRrFrZNcd7Q7FXFgDxVpjtEbRFDCQJg69K2NgQhCFO1S2mifATRYyv5i/5i1kWyLaSBIBR+ht1u8U4RYsWNA8Cr8nnnjC64ndGzdu1E0M+P9xOlsHJWj7jrsrZAncnC3ZunWrBmfdu3cPoeU/uZEdgxJ0h0YRO4JsIgQHDRo00MGwmHDrjfz582sn04ioXbu2lgeEBufYjz76KNSBdSHBDCp0jvXWyJEj9XuB3Z1OZ+srGCJppPgwo8fX7XztBC2CUeCK2QZEgKDETjtvIDgo4XRYCobW7Rg+N3ToUK/bP2BUP64V4YEMyKhRo8yj0GGmGQbbhQcCku+//97rXZGLFi3SD4w5cQPb31Z37dpVC49+//13c8RdMI8IQRmmORMFwxKIt6ni6BIclERmhwI5CybVt2vXTmfWeDugDzdruD48qhYDReE//vhjiMPqHoRACYEGelU9Cs7Nzz77rHkUMSjUffPNN7U2Bu0e3MD2QQnWCxFBvv/++z4f4BTocPLu2bOnvljDSjeS+yBQD+/wyEDBoIRC0rdvX13SQxDgDSwDIbOxcuVKPV+i9g5ZRAxZxRJnhQoVpF+/fjqcLiKNJ9EtGdt0hwwZInXq1NGlFVyPEPygGPaVV17R3aH9+/f3ekDqzJkzdQtyly5dbHeT4a0YlgOKMVCdjYIovLiQerPTjoPImDhxovZr+fvvv3XqJVEwdBpGD5/Ro0ebI4EPuwtQvI7183r16pmjRCLffvut9OnTRxYsWCClSpUyRyMOlztkXBD4IguBawWWVfDhzY6aYHivnTlzRvsDIbDGkg0CHgQ+kVGiRAktrP3ll18i/XfZhSOqIjNmzKhbgxGV4kXrBqjERgTepk0bBiT0EGZKyEmaNWsmuXLl0oxGRNq7PwiBB0aUYPR/7ty5dbcilm0iE5AAshiZM2fWvxOzaZBFiUwQgXb3yP5jlhlm8bglIAHHbNXAml3jxo11KQed85wMPSiQGkTUj/VGogchKMFF3k7w9eLky0JXehAG9KHeY/HixZo1cDosC2EGT4cOHTSAchPHBCW4w8IFOkGCBJo9cPKJDentuXPnynvvvSdZs2Y1R4n+z46ZEgQkuGP1xTRVch4s27zzzjtaF/Lff/+Zo86DWT1YqqpYsaL+v+La5iaOCUoAldooOsILdtiwYeaos6xYsULTeW+//bY0atTIHCW6H9bL7ZYpQf8HBCVIXROFBBliNDZDzdSePXvMUefAzfTzzz+vNxUo7HXTsk0wRwUlgCrrAQMGaESNpmpOOsGhEBCt9TFBs2PHjmyURqGy4/JNcFCCOR9EIUFB6tixY3U3DrqbOqnRHq5VqJlBXSSuX25olBYSR17VWrZsKa+//rp07txZpk+fbo7aGyq7sSyF5j5olub0+QcUObi4221jHYMSCg/sakHfEQxvRGCCon+7Q2O4Dz/8UAOun376ydVZcEcGJdiOhd04LVq0kJdeekmXPLztBhgIULiLJj1YW5w9e7ZWdxOFBWlfbyekRhcEJMCghB4F58MJEybo+RBL2Xael4Rr0+DBg7V1PeoEn3vuOVdnwR39f/7pp59qUIJZBuPHjzdH7WXHjh3yzDPPaJfBn3/+WQMuokdBAGu3oIQ1JRQRKHxFjybsVEG/psOHD5vP2Ad2Ur777rs6dBCBSdu2be8G527l6KAESxzYVoX1OSzpjBs3znzGHtDJr0iRIrqOunTpUh0uRRQedsyUcPmGIgqTd9H1FD2qmjdvbqslS7w/UWbw+eefa1CCdvpuLGx9kCtyRKgtQR3Ga6+9pu16seUqkCEVOXz4cB1GhTca9uW7PXqmiGFQQm6BXZerVq3SVu6YETNnzhzzmcCFTQsoL1i2bJn8+uuvumRDd7giKMGLFbtV8AKYNm2aFC5cWMf9B6LLly9L69atpXv37jrICWO70R2QKCLsWlOCDwdMviA/Q7fXKVOmSNWqVaVhw4a6dB+oryPsrsGE4b179+rXjOV5+j/XVNPgLgxDkpDqw9RIzNZA2uzgwYPmGdELwchvv/2mW5p3796tv0c3P28HOZG72bGmBLUkKPpzy+wq8i3U2yEjjiV73MzVr19fA4BAybxt2bJFb46R/UaWBN1p3datNTxcE5QEw2wC9C/BgCe8eDEADC/g6CquQzS/cOFCefLJJ7XICVEzircQSXPJhryFYNZuyyD4ehGU2K0TLQUOBOM4jy5atEjSp0+v51MUwWJoa3TBAMBevXrpjDLUCWJ5Cb20+DoPmeuCEkBTqaeeekq2bdumwQC2YqEhGYIVvHj9kfZD57758+dLkyZN9ANDofAY7YUxMIooMjBuIdBrpx4UHJTYrekbBRZkxTGkFTeb6IqKbDg2CXTt2lVrT/yVQdy5c6d8+eWXem3BjSaKWmfMmKF1L8yAh86VQUkw7GpB1TPmyCClhjoOdEzFDB2k2qIiODlx4oRmaerUqSMNGjTQlOPUqVO12Aljqol8IWnSpHqHZicISvCe4x0k+QKCEwxqRR3hpEmTZNOmTbqkg+wJmq9FVW8TZGmw27NmzZq6YQG7P2fNmiW9e/fWacIUthiekwCrygzcWWISJeo5UISEYXconKpQoYI2LEuSJIl+4IQf1t0cTq7IhGDENsawoxsrXqhYQ0Skjo6EWDbCTqDHHnvM/Cki30HzQOzawonYLjDLBHNN0EAK2yOJfAlL9EuWLJGhQ4fK8uXL9RxdvXp1qVSpkhQvXlzPy8HneNwshjUIDzWA+PP4QKt73MTi70a2G8dQv4iaQHRmZVYkYhiUhAAvMiztrF27VrvBrl69Wvbv368v2hQpUujyCtLj+D16oeAFjFkjwYEIfkUggjtV/IrnotEPPpDKw+6fDBkymH+NyPcwkLJ///7RupYeUdu3b9dC708++URatWpljhL5FoKTffv2ycaNG2XlypWyZs0a2bBhg2bpcG7HeR1ZdNx84vyOIAW72YKDEAQkOLcHn9+RccHNJc7v6DSL8zuWixiMeIdBSThhrRt7y/HixceBAwc0eEEmBBkWBCbBL2Rs4cWMmmLFiknRokX1OJE/oT4K2YYrV66YI4EPRYAoBsTyZtOmTc1RIv/ALJ3g8ztuSjFTB+d3nOeR/cZ5HB+o/0PmHOd21Idg8wSbnvkOgxIiB5o4caLWSeHOzi41GuvWrdN1eCyhot6KiNzH1YWuRE6FQARr4nYa7X716lW9I0X6nIjciUEJkQOhEBspZQYlRGQnDEqIHAjF1QhKUIhnF8FBCfv0ELkXgxIiB8KOAbRrP3r0qDkS+FCUy6CEyN0YlBA5EIISLOHYaUswMiX4mtk8jci9GJQQORD6K9gtU4L6lzRp0phHRORGDEqIHMiOyzcMSoiIQQmRA6HQFQ39jh8/7pcBk76ADplp06Y1j4jIjRiUEDkUZjehJfa1a9fMkcCGACpbtmzmERG5EYMSIocKDkpQQGoHWGrKkSOHeUREbsSghMihsmTJYqtMCYMSImJQQuRQGBqGqdV2GcqHoCR79uzmERG5EYMSIofC+HRMOUVgEujwdd64cYMTtYlcjkEJkUNhpDqWbzApONDt3r1bAxJsYyYi92JQQuRQmBKM3Sx79uwxRwLXrl27JGnSpAxKiFyOQQmRg+XKlUt27txpHgUuBCXMlBARgxIiB0NQsmPHDvMocG3atEkH8XHuDZG7MSghcjC7BCWrV6+W1KlTaydaInIvBiVEDoYttqgpuXXrljkSeDDzBi3m0ewtRowY5igRuRGDEiIHQ/YBAUkgD+ZDe3lsB0ZfFSJyNwYlRA6WPHly3dWyefNmcyTwICi5efMmu7kSEYMSIidD8SiCkrVr15ojgefYsWMalDBTQkQMSogcDEEJttquX7/eHAk8WFpCLQlm9RCRuzEoIXKwhAkT6sUexa6BOpjv8OHDUqBAAW32RkTuxqCEyOGKFCki586dkzNnzpgjgWXv3r1SvHhx84iI3IxBCZHDFS1aVAfenT592hwJLOg4W65cOfOIiNyMQQmRwwVyUGJZlraYr1y5sjlCRG7GoITI4TCUDzNlULsRaLZu3apdXFGQS0TEoITI4WLGjCmFChWSLVu2mCOBY+7cudrJlYP4iAgYlBC5QIkSJWTdunXmUeBYsGCB7g6KFy+eOUJEbsaghMgFypYtq0PvAs28efM0KGGmhIiAQQmRC+TNm1eLXffv32+ORL9Dhw7JlStXJHfu3BzER0SKQQmRC6RIkULSpUunyyWBAv1Jbt++LXny5DFHiMjtGJQQuUBwULJw4UJzJPrt2LFDg5L8+fObI0TkdgxKiFwA828yZMggK1eu1OF30Q39SbZv365fU+bMmc1RInI7BiVELoBtwcWKFdN288ePHzdHow8yJMiUPPnkk/q1EREBzwZELlGyZEm5dOmSFphGt1u3bmmmpF69euYIERGDEiLXQK8S7HYJhM6uly9fln379kmNGjXMESIiBiVEroH6jYwZM2qGIrqhP0mOHDnYNI2I7sOghMgl0AukSpUqsmrVKnMk+kybNk3y5cvHehIiug/PCEQugsLSFStWmEfRA0WuM2bM0IZuDEqI6F48IxC5COpKsANn9+7d5oj/oavsyZMnNShhJ1ciuheDEiIXSZIkiWTLlk2XT6LL2rVrJVasWFKwYEFzhIjoDgYlRC6SNGlSyZ49u0ydOtUc8T8sH8WJE0cKFy5sjhAR3cGghMhFEiRIoMsmGzZs0GUcf7t+/bps27ZNateuLfHjxzdHiYjuYFBC5DKlSpWSa9euyc6dO80R/0GfFAQlzZs3N0eIiP6PQQmRy5QuXVqDkl27dpkj/nPq1Ck5cuSI1K9f3xwhIvo/BiVELpMzZ05JmzatbN261Rzxn5kzZ2p/Ei7dEFFIGJQQuQx2vtSpU0fWrVtnjvjPxIkTNVNDRBQSBiVELtS4cWO/d3Y9e/as7rzBtGIiopAwKCFyIUwMRtHp+vXrzZGoh4AEWRos3xARhYRBCZELJUyYUAoVKiSjR482R6Le/PnzJVGiRGyaRkShYlBC5ELoV4KgZOzYsTqLJqohK4MalnLlyknKlCnNUSKi+zEoIXIhDMIrWrSonD59Wnbs2GGORh3Uk6AvyosvvmiOEBE9jEEJkUthFwyyJL7ehXPr1i2xLMs8uuPYsWPan+SZZ54xR4iIHsaghMilMHsGA/pQ7PpgEBEZKGb9+uuvtaV8MGwFrly5sn6OiCg0DEqIXCpevHjy1FNPaVCC7IYvLVu2TBYtWmQeifz2229SrVo184iIKGQMSohcDDUeCEqCgoLMEd/InTu3vPzyy1qvglk3WL4pUqSI+azostHRo0d9mqEhIvtjUELkYpUqVZKrV6/Kpk2bzBHfQBHtoUOHpG3btjJmzBjdcYPpxAh+kDWpUqWKZlJixIhh/gQREYMSIlfDEg46rP7yyy/miG+kT59eEidOLEuWLJHBgwdL3Lhx5dtvv5WsWbPKSy+9pPUlzz77rHk2EdEdDEqIXAyFp+juimzGzZs3zdHIS5MmjSRPnlxrVdCj5ODBg1r8euLECXnjjTekX79+ui2ZiOhePCsQuRiWT8qUKSMXLlyQtWvXmqORlzp1akmWLJn+HsEOPhAANW3aVPr27ctdOEQUIgYlRC5XqlQpiR079n27ZSIrRYoUkipVKvPIc6KJGVOXbX744QftJktEFBIGJUQulyNHDh2St3r1ap8t4SATcu804IoVK8pnn33GgISIwsSghIikXbt2snHjRq3/8BXUqkCdOnV0xw1n3hDRo8Sw2CiAyPUQjKAOZPPmzZo58YUtW7ZIs2bN5O+//5bMmTObo0REoWOmhIgkYcKEutwyYcIEcyTy8uTJI6NHj2ZAQkThxkwJEalevXrJ9OnTNVvyoBs3buik3zNnzsi5c+e0ZgTFrFiSubeglYgoMhiUEJEaN26c7pBBQer+/ftlz5492l8EnVlPnTol8ePHv/uB0wY6wV67dk0H72XMmFGyZMmizdGQISlUqJAULFhQf48GbURE4cGghMjlDhw4IF9++aUGJadPn9beJQguypUrp8Wq2DKM3TnoyorPBbeGx6kDM2zw64oVK2TlypWyatUqmTt3rraTRzCCJmqdOnWSDh06cOcNET0SgxIiFzp8+LDMnj1bd8WsWbNG59I8/vjjGogUL15cMmXKFKm5NBjCt27dOlm6dKksXrxYdu3aJQ0aNNDmadgezJ04RBQSBiVELnLp0iX54IMPNCty/vx5Xa555ZVXJFu2bJI0adJIBSIhQSYFtSjbt2+XDz/8UObPny85c+aUrl27SsuWLbm0Q0T3YVBC5AJoIz958mR56623tCakZs2aOoMGNR/+hMwJBvMhOMmVK5cGKhUqVNCviYiIQQmRw6HOo0ePHtqxFfUdbdu21V4kvs6KhBcKY3fu3KkBCXb7PPPMMzqsj0s6RMSghMihsI0XyzTdunXTIGTgwIFSpUoV89nohwnCP/74owwYMODu14q6Fg7rI3IvBiVEDoR+Iug7MnHiRGndurUu1QRqE7NNmzZJly5dtM39m2++qV9rdGVxiCh6MSghchjUj7z66qsyY8YM6devn3Tu3NkW2Yfu3bvLkCFDdPvwxx9/zDoTIhdiUELkIGh0huF62O3y3XffSe3atc1nAh+asY0aNUr69u0rL7zwgi43cSmHyF0YlBA5BApIn3vuOVmwYIHMmzfv7pReu8EuoVatWkmTJk00c4KmbUTkDhzIR+QA6MTaokULbQ+/bNky2wYkUK9ePRk5cqQuP33yySfmKBG5ATMlRDaHtzDqRoYOHarbfjHt1wlmzZql24U/+ugj3UFERM7HTAmRjSEg+eabb2TmzJnazt0pAQlUr15dC16xZRgBChE5HzMlRDY2bdo0ady4sQwfPlxbxjsNeplgCeeHH36QzZs3S8KECc1niMiJGJQQ2RSG6mHIXenSpWXw4MESO3Zs8xlnwewcFPAiQPn9998lVapU5jNE5DQMSohsCG/batWq6ZZZtGp3+mC7LVu2SKlSpbQ1PZqrEZEzsaaEyGYQkIwdO1ZWrFihA/bcMGm3QIECMmjQIP04evSoOUpETsNMCZHNYPtvnTp1JH/+/FprESdOHPMZZ7t8+bI0bNhQbt++rYWvTl2uInIzZkqIbAYXZGQL0LHVLQEJJEqUSKccL1q0SP755x9zlIichEEJkY1cunRJevfuLR07dtSLtNsgQ1SmTBkZP368ZkyIyFkYlBDZBFZaMeof7eSx68aN0HIeTeKmTp0qJ06cMEeJyClYU0JkE2fOnJGnnnpKHnvsMR1cFzOmO+8pgoKCpG7dupImTRot+CUi52CmhMgmMNdm69at0qVLF9cGJIAC11q1aukSzqlTp8xRInICBiVENvH3339Lrly5tF+H29WoUUN7tEyZMsUcISInYFBCZBOjR4/Wkf4kOuMHy1hLlizRTq9E5AwMSohsYN++fXLkyBEpXry4OULYHozlrKtXr5ojRGR3DEqIbAC9SVKnTi1ZsmQxR6h58+ayadMmBiVEDsKghCjAYYPc3LlzJX369JIhQwZz1P/QFwTbcDGHZvv27TooLzqlTJlSMmbMKP/99585QkR2x6CEKMCdP39edu3apUs30THnBkERuqhixwsmEletWlUqV64sJUuWlOeff16OHz9unul/hQsX1gJgInIGBiVEAe7ChQty8eJFnXXjb+fOnZOuXbtqQIJszYEDBzRbgkBk7969Mm7cOMmRI4d8/fXXcuPGDfOn/AfLWRs2bDCPiMjuGJQQBTgEJRhGlzdvXnPEP65duybdu3eXIUOG6O9Dg5qOd955RwMUf8uUKRODEiIHYVBCFOCCg5LcuXObI/6xcOFCmTBhQri23GImz6uvvip79uwxR/wDXV3Rdh+Tk4nI/hiUEAU4XHSxNJIqVSpzxD9+/vlnDYbCC1/jiBEjtAbFXzCUEN1tUXdDRPbHoIQowGHWC7IVSZIkMUeiHpZr/vjjD/Mo/JYvX65ZE39B4S+CkitXrpgjRGRnDEqIAhyCkvjx45tH/oE5O8jQRBRm0fizbwiCkhgxYrBXCZFDMCghsgF/D/P2dicNepn482tFlgRBCVvNEzkDgxKiAIepuMha+PPCmz17dkmYMKF5FH5oaObPrA6WmRAIobaEiOyPQQlRgIsTJ45OxI1I0WlkoX7liSeeMI/CL1++fJI0aVLzKOoxKCFyFgYlRAEubty4Gpj4u617+/btI3SxR2alQ4cOupziLyhwRVDiz0CIiKIOgxKiAJc4cWINDnbv3m2O+Eft2rWlWrVq5tGjDRo0yO9TjFFYi7oSf2+XJqKowaCEKMAlS5ZMA5MdO3aYI/6B2pBhw4ZJ3bp1NVsTGuyA6datm7Ro0cKvWRI4fPiwlChRwu//LhFFDQYlRAEOSxMISrZt22aO+A+m8KKr6+TJkzVrgqxEMAQCTZs21d4kAwYM8Pu2ZTh06JAO5SMiZ4hh+XuvIRFFCPqU1KxZU3ffzJs3T3fjRAfUbqCN/Pbt27XGBcFAhgwZzGejR9GiRbWOBfUvRGR/DEqIbKBv377y+++/a1CSOXNmc9TdMDk5Xbp0snHjRsmVK5c5SkR2xuUbIhtAXQeKOlFDQXdMmTJFsmXLJqlTpzZHiMjuGJQQ2UDp0qV12Wbz5s3mCP3www9SoECBaKllIaKowaCEyAaw++Xpp5/WJRwS2bt3ryxZskSDNez+ISJnYFBCZBPNmzeXZcuW6QXZ7f755x8t/K1fv745QkROwKCEyCby58+vRa4jRowwR9wpeBcSsiQFCxY0R4nICRiUENkEdpo8+eST8uuvv8rBgwfNUfdBse+CBQvkm2++MUeIyCkYlBDZBBqX9ejRQxuGzZ492xx1nzfeeEOKFCkipUqVMkeIyCkYlBDZCLIlPXv2lCFDhuiEXLdZunSp/PXXX9pJFpOTichZGJQQ2Qy6l545c0b69etnjrjD9evXZeDAgZI+fXp57rnnzFEichIGJUQ2g2LX1q1by3fffScrV640R50Pxa2oJfntt990FhAROQ/bzBPZ0KVLl6R48eI6+2XixInmqHMdOXJEihUrpss2gwYNMkeJyGmYKSGyIWQKJk2aJIsXL5YvvvhCt8k61eXLl+X111+XJEmS6K9E5FwMSohsqlChQroT5e2335YZM2aYo84zcuRImTt3rowdO1Zy585tjhKRE3H5hsjGbty4oV1N0bdk+vTpkiNHDvMZ+7t9+7YGW88++6wMGDBAunXrZj5DRE7FoITI5rATB4HJ2bNnZdq0aZIzZ07zGXtbvny5NG7cWEqWLCm//PKLJEuWzHyGiJyKQQmRA6xZs0bq1Kmjxa9Y5kiVKpX5jP3glLRnzx6pXLmyZn6wdIOBhETkfKwpIXKAEiVKyNSpU2XHjh3aw2Pfvn3mM/aDbc4NGjSQtGnTyqhRoxiQELkIMyVEDoI+Hk2aNNElnD///FMyZsxoPhP4UEOyceNGqV69uqRJk0YWLVokqVOnNp8lIjdgpoTIQapUqaJ1JdgijGwDGo7Z5b5jzJgxUrNmTZ1pg9k+DEiI3IdBCZHDlC1bVqZMmaJt2VEAG+jN1W7evCkvv/yytGrVSutisIsoS5Ys5rNE5CYMSogcCMs2GF7Xtm1beeWVV/Rj27Zt5rOBAcs1Cxcu1IwO6mG+/fZbGTFiBAftEbkYa0qIHCwoKEgv+M2aNZOECRNK//79pUOHDhI7dmzzjOiB5aWuXbvKTz/9JJkyZdKvEY3RYsbkfRKRmzEoIXKBrVu3yieffKJj/wsXLqyThlG/kS5dOvMM/9i9e7cW4A4ZMkQDJsyyQXCCIYNERAxKiFwCNSZbtmyRPn36aO8P9ABBm3rUc0T1ttuLFy9qlgY9VM6fP6/1I927d9ddQjFixDDPIiK3Y1BC5DJ4y2NXznfffScrVqzQgAS9TbAVN2vWrJI+fXodfheZYOHUqVNy/PhxzYyg6Hby5MmSIkUKqVixogYjmNtDRPQgBiVELnXt2jU5cOCAzJkzRycNnzhxQrfhpkyZUus7ihUrJgULFtQPZFXCKkDdsGGDbN68WTZt2iTLli3Tvwtt79ECv0yZMtKpUycpXbq07qph3QgRhYZBCREp7IRZvHixBhUIVi5cuCCXLl3SpRcs/SRNmlQ/kEXBzhl8Pvg5iRIl0uOJEyfWGTUIaipUqKB9U1DDQkQUHgxKiOg+OCWg7gNZDmQ7zp07p48RnCAAuXz5smY7EIDgA8EIAhEsz+ADc3cQpBARRRSDEiIiIgoIXNwlIiKigMCghIiIiAICgxIiIiIKCAxKiIiIKCAwKCEiIqKAwKCEiIiIAgKDEiIiIgoIDEqIiIgoILB5GhE9BKeFK1euyNWrVyV27NjatTWs2TdERL7AoISI7oPJvl999ZXcuHFDChQooO3mjx07Jq+//roO54vM9GAiorAwKCEihSF7ixYtki+//FJ69Oghjz/++N0A5PDhw/Lpp59KmzZtpGjRonqMiMjXWFNCRGrr1q3Srl07ef7556VSpUp3AxLctxw9elQ2b94sM2fO1GNERFGBQQkRqTlz5uivFSpU0CnAwTAV+KOPPpLFixdz+i8RRSkGJUSk1q5dqxmRAwcOmCN3xI8fX1q2bCn9+/eXRo0amaNhu3H+kPw8fJYcN4+JiMKDQQkRKeyuuXjxojRr1kyGDRsm+/btkwsXLujnnnnmGXnzzTclY8aM+jhMVpAsHNZbOrf/S06ZQ0RE4cGghIgUAo8UKVLIoUOHpEOHDpI7d24pVaqUtG/fXlatWmWe9Si35eiywdLtszFyyRwhIgovBiVEpOrVqyeTJ0+WvHnz6uOgoCDZuXOn/Pjjj1r8umfPHj0elhtHVsjzo5JInarmABFRBDAoISKF3TbYBrx+/XrZtm2bjBkzRrMkmTJlkh07dsiQIUO0d0noLsrU8X/LO92elbSshyUiLzAoIXI51I1guy/6lEC8ePE0W4LsyODBgzVTkiZNGg1Mrl27ps8JyeG/3pCNuZ6TJ/IkM0eIiCKGQQmRi2G3TY0aNaRQoUIyatQo7UlyLxS/FilSRNKlSycZMmSQuHHjms/c78SaqdJvSR3pWL+QxGLDVyLyEoMSIhdDB9fVq1fr75MnT66/PgiZlFu3bkmDBg00i/Kw6zJl/mLp26eepOV4HCKKBAYlRC6GDEjJkiW1fgSFrg/OtUENycSJE6Vy5cqaUXlo7s3NCzLvkw5ypcirkjVFyFkUIqLwYlBC5GKlS5eW2rVrS8qUKe/r4goYxPfuu+/q3Ju3335bm6jdz5Kdc36Xf9N1lbbVc/JkQkSRxoF8RC53/vx5GT58uGzfvl0KFy6sBa8ISLAduEmTJtKwYUOJHTu2efb/BZ3dIZ/8NEO6du0siWPdH5J80SqG9PylvWyyhkpBc4yI6FEYlBCRunLlily6dEmuXr0qiRMnlmTJkoUYjNxxVf7pXlo+3/+ElMqbwhz7v1VTBsjsTcWlQ586gs+mLvGCvNY4v3CBh4jCwqCEiLwQJCe3rpG9F83D+5yXr9rWkl83NJBfl/eVHJ4j8VPnlkI5U3CJh4jCxKCEiHzslPQql0Y+X87lGyKKGN64EJFveO5vLOu23Lp5XW4G4cB1uX49SG7rcX0GEVGYmCkhIp+4tGGM9B29UZLHOCdzJv0jxyW+lHmqoWSJe01SNO4hvctnMM8kIgqJyP8ActTBOVnHcz0AAAAASUVORK5CYII=;" parent="1" vertex="1">
          <mxGeometry x="-366.87" y="410" width="376.87" height="416" as="geometry" />
        </mxCell>
        <mxCell id="4Dsz1V0SEEpVi8gBza9M-2" style="edgeStyle=orthogonalEdgeStyle;rounded=0;orthogonalLoop=1;jettySize=auto;html=1;exitX=1;exitY=0.5;exitDx=0;exitDy=0;entryX=0;entryY=0.5;entryDx=0;entryDy=0;entryPerimeter=0;" parent="1" source="bSiH7g8bPL2_hH1thWB7-13" target="bSiH7g8bPL2_hH1thWB7-12" edge="1">
          <mxGeometry relative="1" as="geometry" />
        </mxCell>
      </root>
    </mxGraphModel>
  </diagram>
</mxfile>
